<svg width="100" height="101" viewBox="0 0 100 101" fill="none" xmlns="http://www.w3.org/2000/svg">
<g opacity="0.5">
<path fill-rule="evenodd" clip-rule="evenodd" d="M50 28.9294C46.6829 28.9294 44.02 29.9778 38.2214 32.2972L30.1005 35.5456C27.2041 36.7042 25.1151 37.5413 23.7412 38.2616C23.0528 38.6225 22.6215 38.9154 22.3733 39.1535C22.2236 39.297 22.181 39.3805 22.1702 39.4113C22.181 39.4422 22.2236 39.5256 22.3733 39.6692C22.6215 39.9073 23.0528 40.2002 23.7412 40.5611C25.1151 41.2814 27.2041 42.1185 30.1005 43.2771L38.2214 46.5255C44.02 48.8448 46.6829 49.8933 50 49.8933C53.3171 49.8933 55.9799 48.8448 61.7786 46.5255L69.8995 43.2771C72.796 42.1185 74.885 41.2814 76.2588 40.5611C76.9472 40.2002 77.3785 39.9073 77.6267 39.6692C77.7764 39.5256 77.819 39.4422 77.8298 39.4113C77.819 39.3805 77.7764 39.297 77.6267 39.1535C77.3785 38.9154 76.9472 38.6225 76.2588 38.2616C74.885 37.5413 72.796 36.7042 69.8995 35.5456L61.7786 32.2972C55.9799 29.9778 53.3171 28.9294 50 28.9294ZM77.833 39.4251C77.8327 39.4252 77.8318 39.4222 77.8315 39.4164C77.8332 39.4222 77.8334 39.4251 77.833 39.4251ZM77.8315 39.4063C77.8318 39.4005 77.8327 39.3976 77.833 39.3975C77.8334 39.3975 77.8332 39.4004 77.8315 39.4063ZM22.167 39.3975C22.1673 39.3976 22.1682 39.4005 22.1685 39.4063C22.1668 39.4004 22.1666 39.3975 22.167 39.3975ZM22.1685 39.4164C22.1682 39.4222 22.1673 39.4251 22.167 39.4252C22.1666 39.4252 22.1668 39.4223 22.1685 39.4164ZM37.5998 30.2102C43.1688 27.9824 46.2227 26.7607 50 26.7607C53.7772 26.7607 56.831 27.9823 62.3998 30.21L70.774 33.5597C73.5867 34.6847 75.7807 35.5623 77.2658 36.3409C78.013 36.7326 78.6584 37.138 79.1279 37.5884C79.6054 38.0464 80 38.6497 80 39.4113C80 40.173 79.6054 40.7762 79.1279 41.2343C78.6584 41.6847 78.013 42.09 77.2658 42.4818C75.7807 43.2604 73.5868 44.1379 70.774 45.263L62.584 48.5391L62.3984 48.6133C56.8305 50.8405 53.7769 52.0619 50 52.0619C46.223 52.0619 43.1693 50.8404 37.6012 48.6132L37.416 48.5391L29.2951 45.2906L29.2255 45.2628C26.413 44.1378 24.2192 43.2603 22.7342 42.4818C21.987 42.09 21.3416 41.6847 20.8721 41.2343C20.3946 40.7763 20 40.173 20 39.4113C20 38.6497 20.3946 38.0464 20.8721 37.5884C21.3416 37.138 21.987 36.7326 22.7342 36.3409C24.2192 35.5624 26.413 34.6849 29.2254 33.5599L37.5998 30.2102Z" fill="#3126CA"/>
<path fill-rule="evenodd" clip-rule="evenodd" d="M21.808 50.1701L21.8072 50.1694L21.8098 50.1717C21.813 50.1746 21.819 50.1798 21.8278 50.1874C21.8454 50.2027 21.8741 50.2272 21.9139 50.2605C21.9935 50.3269 22.1174 50.4279 22.2857 50.558C22.6224 50.8182 23.1364 51.1945 23.8277 51.6428C25.2104 52.5395 27.3013 53.7237 30.1005 54.8435M30.1005 54.8435L38.2214 58.0918C38.2214 58.0918 38.2214 58.0918 38.2214 58.0918C44.02 60.4111 46.6829 61.4596 50 61.4596C53.3171 61.4596 55.9799 60.4111 61.7786 58.0918C61.7786 58.0918 61.7786 58.0918 61.7786 58.0918L69.8995 54.8435C72.6988 53.7237 74.7897 52.5395 76.1723 51.6428C76.8636 51.1945 77.3776 50.8182 77.7143 50.558C77.8826 50.4279 78.0065 50.3269 78.0861 50.2605C78.1259 50.2272 78.1546 50.2027 78.1722 50.1875C78.1763 50.1839 78.1798 50.1808 78.1828 50.1782L78.1902 50.1717L78.1916 50.1705C78.1917 50.1704 78.1918 50.1703 78.192 50.1701C78.1921 50.17 78.1922 50.1699 78.1923 50.1698C78.1925 50.1697 78.1926 50.1696 78.1928 50.1694C78.6386 49.7707 79.3233 49.8082 79.7228 50.2536C80.1227 50.6994 80.0855 51.3849 79.6397 51.7848L78.9157 50.9777C79.6397 51.7848 79.6395 51.785 79.6393 51.7852L79.6375 51.7869L79.6341 51.7898C79.6316 51.7921 79.6283 51.795 79.6243 51.7985C79.6163 51.8056 79.6055 51.815 79.5919 51.8268C79.5646 51.8505 79.526 51.8835 79.476 51.9252C79.3762 52.0086 79.2309 52.1267 79.0404 52.274C78.6593 52.5685 78.0966 52.9796 77.3524 53.4623C75.8639 54.4277 73.6481 55.6797 70.705 56.857L62.3984 60.1797C56.8305 62.4068 53.7769 63.6283 50 63.6283C46.223 63.6283 43.1693 62.4068 37.6012 60.1795L29.2951 56.857C26.352 55.6797 24.1362 54.4277 22.6477 53.4623C21.9034 52.9796 21.3408 52.5685 20.9596 52.274C20.7691 52.1267 20.6239 52.0086 20.524 51.9252C20.474 51.8835 20.4354 51.8505 20.4082 51.8269C20.3945 51.815 20.3837 51.8056 20.3757 51.7985C20.3717 51.795 20.3685 51.7921 20.3659 51.7898L20.3626 51.7869L20.3608 51.7853C20.3605 51.785 20.3603 51.7848 21.0843 50.9777L20.3603 51.7848C19.9145 51.3849 19.8773 50.6994 20.2772 50.2536C20.6767 49.8083 21.3613 49.7707 21.8071 50.1693L21.8072 50.1694" fill="#3126CA"/>
<path fill-rule="evenodd" clip-rule="evenodd" d="M21.808 61.7363C21.808 61.7363 21.808 61.7363 21.808 61.7363L21.8072 61.7356L21.8098 61.7379C21.813 61.7407 21.819 61.746 21.8278 61.7536C21.8454 61.7688 21.8741 61.7934 21.9139 61.8266C21.9935 61.893 22.1174 61.9941 22.2857 62.1241C22.6224 62.3843 23.1364 62.7606 23.8277 63.209C25.2104 64.1056 27.3013 65.2899 30.1005 66.4096M30.1005 66.4096L38.2214 69.658C38.2214 69.658 38.2214 69.658 38.2214 69.658C44.02 71.9773 46.6829 73.0258 50 73.0258C53.3171 73.0258 55.9799 71.9773 61.7786 69.658C61.7786 69.658 61.7786 69.658 61.7786 69.658L69.8995 66.4096C72.6988 65.2899 74.7897 64.1056 76.1723 63.209C76.8636 62.7606 77.3776 62.3843 77.7143 62.1242C77.8826 61.9941 78.0065 61.8931 78.0861 61.8266C78.1259 61.7934 78.1546 61.7688 78.1722 61.7536C78.1809 61.746 78.187 61.7407 78.1902 61.7379L78.1916 61.7367C78.1917 61.7365 78.1918 61.7364 78.192 61.7363C78.1921 61.7362 78.1922 61.7361 78.1923 61.736C78.1925 61.7359 78.1926 61.7357 78.1928 61.7356C78.6386 61.3368 79.3233 61.3744 79.7228 61.8198C80.1227 62.2655 80.0855 62.9511 79.6397 63.351L78.9157 62.5438C79.6397 63.351 79.6395 63.3512 79.6393 63.3514L79.6375 63.353L79.6341 63.356L79.6284 63.3611L79.6243 63.3647C79.6163 63.3717 79.6055 63.3812 79.5919 63.393C79.5646 63.4166 79.526 63.4496 79.476 63.4913C79.3762 63.5747 79.2309 63.6929 79.0404 63.8401C78.6593 64.1346 78.0966 64.5458 77.3524 65.0285C75.8639 65.9938 73.6481 67.2459 70.705 68.4232L62.3984 71.7458C56.8305 73.973 53.7769 75.1944 50 75.1944C46.223 75.1944 43.1693 73.9729 37.6012 71.7457L37.416 71.6716L29.2951 68.4232C26.352 67.2459 24.1362 65.9938 22.6477 65.0285C21.9034 64.5458 21.3408 64.1347 20.9596 63.8401C20.7691 63.6929 20.6239 63.5747 20.524 63.4913C20.474 63.4497 20.4354 63.4166 20.4082 63.393C20.3945 63.3812 20.3837 63.3717 20.3757 63.3647C20.3717 63.3612 20.3685 63.3583 20.3659 63.356L20.3626 63.353L20.3608 63.3514C20.3605 63.3512 20.3603 63.351 21.0843 62.5438L20.3603 63.351C19.9145 62.9511 19.8773 62.2656 20.2772 61.8198C20.6767 61.3744 21.3613 61.3368 21.8071 61.7355L21.8072 61.7356M21.808 61.7363C21.808 61.7363 21.808 61.7363 21.808 61.7363V61.7363Z" fill="#3126CA"/>
</g>
</svg>
