<svg width="100" height="101" viewBox="0 0 100 101" fill="none" xmlns="http://www.w3.org/2000/svg">
<g opacity="0.5">
<path fill-rule="evenodd" clip-rule="evenodd" d="M79.5804 34.2155C80.1211 34.7305 80.142 35.5864 79.627 36.1271L64.1736 52.3529C63.6586 52.8936 62.8027 52.9145 62.2619 52.3995C61.7212 51.8845 61.7003 51.0286 62.2153 50.4878L77.6687 34.2621C78.1837 33.7213 79.0396 33.7005 79.5804 34.2155ZM56.4003 58.5541C56.941 59.0691 56.9619 59.925 56.4469 60.4657L48.7202 68.5786C48.4471 68.8654 48.062 69.018 47.6666 68.9962C47.2712 68.9744 46.9053 68.7804 46.6654 68.4653L45.1207 66.4371C44.6682 65.843 44.783 64.9946 45.3771 64.5422C45.9712 64.0897 46.8196 64.2045 47.2721 64.7986L47.8558 65.5651L54.4886 58.6007C55.0036 58.0599 55.8595 58.0391 56.4003 58.5541Z" fill="#3126CA"/>
<path fill-rule="evenodd" clip-rule="evenodd" d="M62.2729 33.1338C62.8137 33.6488 62.8345 34.5047 62.3195 35.0454L46.8661 51.2712C46.3511 51.8119 45.4952 51.8328 44.9545 51.3178C44.4137 50.8027 44.3928 49.9469 44.9079 49.4061L60.3613 33.1804C60.8763 32.6396 61.7322 32.6187 62.2729 33.1338ZM20.5307 53.5825C21.1239 53.1288 21.9725 53.2418 22.4262 53.835L30.561 64.47L37.1812 57.519C37.6962 56.9782 38.552 56.9574 39.0928 57.4724C39.6336 57.9874 39.6544 58.8433 39.1394 59.384L31.5327 67.3709C31.4607 67.4661 31.3747 67.5533 31.2753 67.6293C31.1813 67.7012 31.0809 67.7589 30.9767 67.8027C30.7847 67.8869 30.5734 67.9263 30.3592 67.9145C29.9638 67.8927 29.5978 67.6987 29.3579 67.3836L27.8132 65.3554C27.7705 65.2994 27.7329 65.2411 27.7003 65.1812L20.2782 55.478C19.8245 54.8848 19.9376 54.0362 20.5307 53.5825Z" fill="#3126CA"/>
</g>
</svg>
