<svg width="16" height="17" viewBox="0 0 16 17" fill="none" xmlns="http://www.w3.org/2000/svg">
<g clip-path="url(#clip0_873_4361)">
<path fill-rule="evenodd" clip-rule="evenodd" d="M19.6775 -3.17753C20.1075 -2.74758 20.1075 -2.05048 19.6775 -1.62053L-2.12053 20.1775C-2.55049 20.6075 -3.24758 20.6075 -3.67753 20.1775C-4.10749 19.7476 -4.10749 19.0505 -3.67753 18.6205L18.1205 -3.17753C18.5505 -3.60749 19.2476 -3.60749 19.6775 -3.17753Z" fill="white"/>
<path fill-rule="evenodd" clip-rule="evenodd" d="M-3.67753 -3.17726C-3.24758 -3.60721 -2.55049 -3.60721 -2.12053 -3.17726L19.6775 18.6208C20.1075 19.0507 20.1075 19.7478 19.6775 20.1778C19.2476 20.6077 18.5505 20.6077 18.1205 20.1778L-3.67753 -1.62025C-4.10749 -2.05021 -4.10749 -2.7473 -3.67753 -3.17726Z" fill="white"/>
</g>
<defs>
<clipPath id="clip0_873_4361">
<rect width="16" height="16" fill="white" transform="translate(0 0.5)"/>
</clipPath>
</defs>
</svg>
