<svg width="100" height="101" viewBox="0 0 100 101" fill="none" xmlns="http://www.w3.org/2000/svg">
<g opacity="0.5">
<path fill-rule="evenodd" clip-rule="evenodd" d="M42.8274 29.4354L58.7828 29.4354C59.3816 29.4354 59.8671 29.9209 59.8671 30.5198C59.8671 31.1186 59.3816 31.6041 58.7828 31.6041H42.8792C41.508 31.6041 40.5521 31.6051 39.8109 31.6723C39.0847 31.7381 38.6718 31.8605 38.3611 32.0399C37.8666 32.3254 37.4559 32.7361 37.1704 33.2306C36.991 33.5413 36.8686 33.9542 36.8028 34.6804C36.7356 35.4216 36.7346 36.3775 36.7346 37.7487C36.7346 39.1199 36.7356 40.0758 36.8028 40.8169C36.8686 41.5432 36.991 41.956 37.1704 42.2668C37.4559 42.7613 37.8666 43.1719 38.3611 43.4574C38.6718 43.6368 39.0847 43.7592 39.8109 43.825C40.5521 43.8922 41.508 43.8933 42.8792 43.8933H68.9033C70.2744 43.8933 71.2303 43.8922 71.9715 43.825C72.6976 43.7592 73.1105 43.6368 73.4213 43.4575C73.9158 43.1719 74.3265 42.7612 74.6118 42.2669L74.612 42.2667C74.7914 41.956 74.9138 41.5431 74.9796 40.8169C75.0468 40.0758 75.0478 39.1199 75.0478 37.7487C75.0478 36.3775 75.0468 35.4216 74.9796 34.6804C74.9138 33.9542 74.7914 33.5414 74.612 33.2307L74.6118 33.2304C74.3265 32.7361 73.9158 32.3254 73.4213 32.0399C72.8966 31.737 72.155 31.627 70.338 31.6085C69.7392 31.6024 69.2587 31.112 69.2648 30.5131C69.2709 29.9143 69.7613 29.4338 70.3601 29.4399C72.0933 29.4576 73.4134 29.5312 74.5057 30.1618C75.3297 30.6376 76.0144 31.322 76.4901 32.1464C76.8918 32.8422 77.06 33.6081 77.1394 34.4847C77.2165 35.3352 77.2165 36.3896 77.2165 37.697V37.8004C77.2165 39.1077 77.2165 40.1621 77.1394 41.0127C77.06 41.8893 76.8918 42.6552 76.4901 43.3509C76.0144 44.1753 75.3297 44.8597 74.5057 45.3355C73.8099 45.7372 73.0439 45.9054 72.1672 45.9849C71.3167 46.062 70.2623 46.0619 68.955 46.0619H42.8274C41.5201 46.0619 40.4657 46.062 39.6152 45.9849C38.7385 45.9054 37.9726 45.7373 37.2768 45.3356C36.4526 44.8597 35.7681 44.1753 35.2923 43.3511C34.8906 42.6553 34.7224 41.8893 34.643 41.0127C34.5659 40.1621 34.5659 39.1078 34.5659 37.8004V37.6969C34.5659 36.3896 34.5659 35.3352 34.643 34.4847C34.7224 33.608 34.8906 32.8421 35.2923 32.1463C35.7681 31.3221 36.4526 30.6376 37.2768 30.1618C37.9726 29.7601 38.7385 29.5919 39.6152 29.5125C40.4657 29.4354 41.5201 29.4354 42.8274 29.4354Z" fill="#3126CA"/>
<path fill-rule="evenodd" clip-rule="evenodd" d="M37.8191 57.125C37.1597 57.5056 36.6122 58.0532 36.2315 58.7125C35.6504 59.7191 35.6504 61.0703 35.6504 63.7727C35.6504 66.4752 35.6504 67.8264 36.2315 68.833C36.6122 69.4923 37.1597 70.0399 37.8191 70.4204C38.8256 71.0017 40.1768 71.0017 42.8793 71.0017H60.2287C62.9312 71.0017 64.2824 71.0017 65.2889 70.4204C65.9482 70.0399 66.4959 69.4923 66.8764 68.833C67.4576 67.8264 67.4576 66.4752 67.4576 63.7727C67.4576 61.0703 67.4576 59.7191 66.8764 58.7125C66.4959 58.0532 65.9482 57.5056 65.2889 57.125C64.2824 56.5438 62.9312 56.5438 60.2287 56.5438H42.8793C40.1768 56.5438 38.8256 56.5438 37.8191 57.125ZM38.1096 67.7486C38.0413 67.6303 37.9418 67.3938 37.8828 66.7431C37.8211 66.0622 37.8191 65.1639 37.8191 63.7727C37.8191 62.3816 37.8211 61.4832 37.8828 60.8024C37.9418 60.1517 38.0413 59.9152 38.1096 59.7969M38.1096 67.7487C38.3001 68.0784 38.5738 68.3521 38.9031 68.5421L38.9035 68.5424C39.0217 68.6106 39.258 68.7102 39.909 68.7692C40.5898 68.8309 41.4881 68.833 42.8793 68.833H60.2287C61.6199 68.833 62.5182 68.8309 63.199 68.7692C63.85 68.7102 64.0863 68.6106 64.2045 68.5424L64.2048 68.5422C64.5343 68.3521 64.808 68.0783 64.9982 67.7489L64.9983 67.7485C65.0666 67.6304 65.1661 67.394 65.2251 66.743C65.2869 66.0622 65.2889 65.1639 65.2889 63.7727C65.2889 62.3816 65.2869 61.4833 65.2251 60.8024C65.1661 60.1515 65.0666 59.9151 64.9983 59.7969L64.9982 59.7966C64.808 59.4672 64.5343 59.1934 64.2048 59.0033L64.2045 59.0031C64.0863 58.9349 63.85 58.8353 63.199 58.7763C62.5182 58.7146 61.6199 58.7125 60.2287 58.7125H42.8793C41.4881 58.7125 40.5898 58.7146 39.909 58.7763C39.258 58.8353 39.0217 58.9349 38.9035 59.0031L38.9031 59.0033C38.5738 59.1934 38.3001 59.467 38.1096 59.7968" fill="#3126CA"/>
<path fill-rule="evenodd" clip-rule="evenodd" d="M24.0843 20.7607C24.6832 20.7607 25.1687 21.2462 25.1687 21.8451V56.5439C25.1687 57.1427 24.6832 57.6282 24.0843 57.6282C23.4855 57.6282 23 57.1427 23 56.5439V21.8451C23 21.2462 23.4855 20.7607 24.0843 20.7607ZM24.0843 67.0258C24.6832 67.0258 25.1687 67.5113 25.1687 68.1101V79.6764C25.1687 80.2753 24.6832 80.7607 24.0843 80.7607C23.4855 80.7607 23 80.2753 23 79.6764V68.1101C23 67.5113 23.4855 67.0258 24.0843 67.0258Z" fill="#3126CA"/>
</g>
</svg>
