<svg width="100" height="101" viewBox="0 0 100 101" fill="none" xmlns="http://www.w3.org/2000/svg">
<g opacity="0.5">
<path fill-rule="evenodd" clip-rule="evenodd" d="M20 67.8312C20 67.1311 20.5675 66.5636 21.2676 66.5636H44.9296C45.6297 66.5636 46.1972 67.1311 46.1972 67.8312C46.1972 68.5313 45.6297 69.0988 44.9296 69.0988H21.2676C20.5675 69.0988 20 68.5313 20 67.8312Z" fill="#3126CA"/>
<path fill-rule="evenodd" clip-rule="evenodd" d="M20 50.9297C20 50.2296 20.5675 49.6621 21.2676 49.6621H41.5493C42.2494 49.6621 42.8169 50.2296 42.8169 50.9297C42.8169 51.6298 42.2494 52.1973 41.5493 52.1973H21.2676C20.5675 52.1973 20 51.6298 20 50.9297Z" fill="#3126CA"/>
<path fill-rule="evenodd" clip-rule="evenodd" d="M20 34.0283C20 33.3283 20.5675 32.7607 21.2676 32.7607H28.8732C29.5733 32.7607 30.1408 33.3283 30.1408 34.0283C30.1408 34.7284 29.5733 35.296 28.8732 35.296H21.2676C20.5675 35.296 20 34.7284 20 34.0283ZM41.9718 34.0283C41.9718 33.3283 42.5394 32.7607 43.2394 32.7607H78.7324C79.4325 32.7607 80 33.3283 80 34.0283C80 34.7284 79.4325 35.296 78.7324 35.296H43.2394C42.5394 35.296 41.9718 34.7284 41.9718 34.0283Z" fill="#3126CA"/>
<path fill-rule="evenodd" clip-rule="evenodd" d="M65.2786 46.2672C68.7107 43.2706 73.8945 43.879 76.6024 47.7256L76.6024 47.7257C79.1155 51.296 78.5287 56.3465 75.2291 59.1591L75.2291 59.1591L66.0022 67.0238C65.5852 67.3792 64.9719 67.3792 64.555 67.0238L55.3281 59.1591L55.328 59.1591C52.0285 56.3465 51.4416 51.296 53.9548 47.7256L53.9548 47.7256C56.6626 43.879 61.8465 43.2706 65.2786 46.2672ZM66.319 48.3599C66.319 48.3599 66.319 48.3599 66.319 48.3599L66.092 48.6018C65.8811 48.8265 65.5867 48.954 65.2786 48.954C64.9704 48.954 64.676 48.8265 64.4652 48.6018L64.2382 48.3599C64.2382 48.3599 64.2382 48.3599 64.2382 48.3599C61.8226 45.7863 57.8471 46.0721 55.7792 49.0098C53.9125 51.6617 54.3746 55.4149 56.7753 57.4612C56.7753 57.4612 56.7753 57.4612 56.7753 57.4612L65.2786 64.7091L73.7818 57.4612C76.1825 55.4149 76.6447 51.6617 74.778 49.0098L75.6902 48.3677L74.778 49.0098C72.71 46.0721 68.7345 45.7863 66.319 48.3599Z" fill="#3126CA"/>
</g>
</svg>
