<svg width="40" height="41" viewBox="0 0 40 41" fill="none" xmlns="http://www.w3.org/2000/svg">
<path fill-rule="evenodd" clip-rule="evenodd" d="M2 20.7607C2 30.7019 10.0589 38.7607 20 38.7607C29.9411 38.7607 38 30.7019 38 20.7607C38 10.8196 29.9411 2.76074 20 2.76074C10.0589 2.76074 2 10.8196 2 20.7607ZM20 0.760742C8.95431 0.760742 0 9.71505 0 20.7607C0 31.8064 8.95431 40.7607 20 40.7607C31.0457 40.7607 40 31.8064 40 20.7607C40 9.71505 31.0457 0.760742 20 0.760742Z" fill="#071825"/>
<path d="M8.33398 15.3209C8.55489 14.2716 8.72058 13.1671 9.32808 12.2282C10.6535 10.0191 12.7521 9.19073 15.1821 9.13551C18.4957 9.08028 21.7541 9.08028 25.0677 9.13551C27.2768 9.19073 29.265 9.90868 30.6456 11.8416C31.5293 13.1118 31.8606 14.4925 31.8606 15.9836C31.9158 19.1316 31.9158 22.2795 31.8606 25.4826C31.8054 28.0231 30.9218 30.1769 28.547 31.5024C27.4425 32.1099 26.2275 32.386 25.0125 32.386C21.7541 32.4412 18.4957 32.4412 15.2926 32.386C12.8626 32.3308 10.764 31.5024 9.38331 29.2933C8.77581 28.3544 8.61012 27.2499 8.38921 26.2006C8.33399 22.5556 8.33398 18.9659 8.33398 15.3209ZM20.1525 11.3446C18.551 11.3446 16.9494 11.2894 15.2926 11.3446C12.7521 11.3998 11.2058 12.5596 10.764 14.7686C10.6535 15.2105 10.5983 15.7075 10.5983 16.1493C10.5983 19.1868 10.5431 22.2795 10.5983 25.317C10.6535 28.3544 12.1999 29.956 15.1269 30.0665C18.4405 30.1769 21.7541 30.1769 25.0677 30.0665C27.4977 30.0112 28.9336 28.7963 29.4306 26.6976C29.5411 26.3111 29.5963 25.9245 29.5963 25.5379C29.5963 22.0586 29.8172 18.5793 29.4859 15.1C29.3202 13.0566 27.9395 11.6759 25.8961 11.3998C23.9632 11.2341 22.0302 11.3998 20.1525 11.3446Z" fill="#071825"/>
<path d="M26.1719 20.7884C26.1719 24.0468 23.4658 26.7529 20.097 26.8081C16.7281 26.8633 13.9668 24.102 13.9668 20.7332C13.9668 17.4195 16.7834 14.6582 20.097 14.7134C23.521 14.7687 26.2272 17.4748 26.1719 20.7884ZM23.9629 20.7884C23.9629 18.6898 22.2508 16.9777 20.1522 16.9777C18.0536 16.9777 16.2863 18.6898 16.2863 20.7884C16.2863 22.887 17.9984 24.599 20.097 24.599C22.1956 24.5438 23.9076 22.8318 23.9629 20.7884Z" fill="#071825"/>
<path d="M26.3388 13.1118C27.1672 13.1118 27.8299 13.7746 27.8299 14.5477C27.8299 15.3209 27.1672 15.9836 26.394 15.9836C25.5656 15.9836 24.9029 15.3761 24.8477 14.5477C24.8477 13.7746 25.5104 13.1118 26.3388 13.1118Z" fill="#071825"/>
</svg>
