<svg width="100" height="101" viewBox="0 0 100 101" fill="none" xmlns="http://www.w3.org/2000/svg">
<g opacity="0.5">
<path d="M41.7944 34.7308L27.9873 38.5941C22.1751 40.2203 18.7811 46.2527 20.4066 52.0677L26.2582 73.0018C27.8837 78.8168 33.9131 82.2125 39.7253 80.5863L55.0407 76.301C59.5296 75.045 62.5761 71.1607 62.9818 66.7783C62.2611 66.9459 61.5135 67.0231 60.7552 67.0005C60.2813 70.331 57.8979 73.231 54.452 74.1952L39.1367 78.4804C34.4869 79.7814 29.6634 77.0649 28.363 72.4129L22.5114 51.4788C21.211 46.8268 23.9262 42.0009 28.576 40.6999L41.1371 37.1853L41.7944 34.7308Z" fill="#3126CA"/>
<path fill-rule="evenodd" clip-rule="evenodd" d="M54.0902 22.5883L69.4474 26.7032C75.2754 28.2649 78.7341 34.2554 77.1725 40.0835L71.5506 61.0645C69.989 66.8925 63.9985 70.3512 58.1704 68.7895L42.8133 64.6746C36.9852 63.113 33.5266 57.1224 35.0882 51.2944L40.71 30.3134C42.2716 24.4853 48.2622 21.0267 54.0902 22.5883ZM53.5247 24.6988C48.8623 23.4495 44.0699 26.2165 42.8206 30.8789L37.1987 51.8599C35.9494 56.5223 38.7163 61.3148 43.3788 62.5641L58.7359 66.679C63.3984 67.9283 68.1908 65.1614 69.4401 60.4989L75.0619 39.5179C76.3112 34.8555 73.5443 30.0631 68.8819 28.8138L53.5247 24.6988Z" fill="#3126CA"/>
</g>
</svg>
