<svg width="18" height="14" viewBox="0 0 18 14" fill="none" xmlns="http://www.w3.org/2000/svg">
<path fill-rule="evenodd" clip-rule="evenodd" d="M7.53033 0.230412C7.23744 -0.0624811 6.76256 -0.0624811 6.46967 0.230412L0.469669 6.23041C0.176777 6.5233 0.176777 6.99818 0.469669 7.29107L6.46967 13.2911C6.76256 13.584 7.23744 13.584 7.53033 13.2911C7.82322 12.9982 7.82322 12.5233 7.53033 12.2304L2.81066 7.51074H11.5C11.9142 7.51074 12.25 7.17496 12.25 6.76074C12.25 6.34653 11.9142 6.01074 11.5 6.01074H2.81066L7.53033 1.29107C7.82322 0.998179 7.82322 0.523305 7.53033 0.230412ZM17.75 6.76074C17.75 6.34653 17.4142 6.01074 17 6.01074H14.5C14.0858 6.01074 13.75 6.34653 13.75 6.76074C13.75 7.17496 14.0858 7.51074 14.5 7.51074H17C17.4142 7.51074 17.75 7.17496 17.75 6.76074Z" fill="#81889B"/>
</svg>
