<svg width="18" height="14" viewBox="0 0 18 14" fill="none" xmlns="http://www.w3.org/2000/svg">
<path fill-rule="evenodd" clip-rule="evenodd" d="M10.4697 0.230412C10.7626 -0.0624811 11.2374 -0.0624811 11.5303 0.230412L17.5303 6.23041C17.8232 6.52331 17.8232 6.99818 17.5303 7.29107L11.5303 13.2911C11.2374 13.584 10.7626 13.584 10.4697 13.2911C10.1768 12.9982 10.1768 12.5233 10.4697 12.2304L15.1893 7.51074H6.5C6.08579 7.51074 5.75 7.17496 5.75 6.76074C5.75 6.34653 6.08579 6.01074 6.5 6.01074H15.1893L10.4697 1.29107C10.1768 0.998179 10.1768 0.523305 10.4697 0.230412ZM0.25 6.76074C0.25 6.34653 0.585786 6.01074 1 6.01074H3.5C3.91421 6.01074 4.25 6.34653 4.25 6.76074C4.25 7.17496 3.91421 7.51074 3.5 7.51074H1C0.585786 7.51074 0.25 7.17496 0.25 6.76074Z" fill="#696CEF"/>
</svg>
