<svg width="40" height="41" viewBox="0 0 40 41" fill="none" xmlns="http://www.w3.org/2000/svg">
<path fill-rule="evenodd" clip-rule="evenodd" d="M2 20.7607C2 30.7019 10.0589 38.7607 20 38.7607C29.9411 38.7607 38 30.7019 38 20.7607C38 10.8196 29.9411 2.76074 20 2.76074C10.0589 2.76074 2 10.8196 2 20.7607ZM20 0.760742C8.95431 0.760742 0 9.71505 0 20.7607C0 31.8064 8.95431 40.7607 20 40.7607C31.0457 40.7607 40 31.8064 40 20.7607C40 9.71505 31.0457 0.760742 20 0.760742Z" fill="#071825"/>
<path d="M23.1026 14.0537L24.7613 14.0537L24.7613 10.2893L22.2666 10.2847C18.7291 10.2847 17.0527 12.4791 17.0527 15.6054L17.0527 18.5665L14.2852 18.5665L14.2852 22.1427L17.0527 22.1427L17.0527 31.2371L21.2062 31.2371L21.2062 22.1427H23.9738L24.7613 18.5665L21.2062 18.5665L21.2062 16.1242C21.2018 15.1325 21.7254 14.0537 23.1026 14.0537Z" fill="#071825"/>
</svg>
