<svg width="40" height="40" viewBox="0 0 40 40" fill="none" xmlns="http://www.w3.org/2000/svg">
<path fill-rule="evenodd" clip-rule="evenodd" d="M2 20C2 29.9411 10.0589 38 20 38C29.9411 38 38 29.9411 38 20C38 10.0589 29.9411 2 20 2C10.0589 2 2 10.0589 2 20ZM20 0C8.95431 0 0 8.95431 0 20C0 31.0457 8.95431 40 20 40C31.0457 40 40 31.0457 40 20C40 8.95431 31.0457 0 20 0Z" fill="#0E2333"/>
<path d="M8.33398 14.5598C8.55489 13.5105 8.72058 12.406 9.32808 11.4671C10.6535 9.25806 12.7521 8.42965 15.1821 8.37443C18.4957 8.3192 21.7541 8.3192 25.0677 8.37443C27.2768 8.42965 29.265 9.1476 30.6456 11.0805C31.5293 12.3508 31.8606 13.7314 31.8606 15.2226C31.9158 18.3705 31.9158 21.5184 31.8606 24.7216C31.8054 27.262 30.9218 29.4159 28.547 30.7413C27.4425 31.3488 26.2275 31.6249 25.0125 31.6249C21.7541 31.6802 18.4957 31.6802 15.2926 31.6249C12.8626 31.5697 10.764 30.7413 9.38331 28.5322C8.77581 27.5934 8.61012 26.4888 8.38921 25.4395C8.33399 21.7945 8.33398 18.2048 8.33398 14.5598ZM20.1525 10.5835C18.551 10.5835 16.9494 10.5283 15.2926 10.5835C12.7521 10.6387 11.2058 11.7985 10.764 14.0076C10.6535 14.4494 10.5983 14.9464 10.5983 15.3882C10.5983 18.4257 10.5431 21.5184 10.5983 24.5559C10.6535 27.5934 12.1999 29.1949 15.1269 29.3054C18.4405 29.4159 21.7541 29.4159 25.0677 29.3054C27.4977 29.2502 28.9336 28.0352 29.4306 25.9366C29.5411 25.55 29.5963 25.1634 29.5963 24.7768C29.5963 21.2975 29.8172 17.8182 29.4859 14.3389C29.3202 12.2955 27.9395 10.9149 25.8961 10.6387C23.9632 10.473 22.0302 10.6387 20.1525 10.5835Z" fill="#0E2333"/>
<path d="M26.1719 20.0269C26.1719 23.2853 23.4658 25.9914 20.097 26.0467C16.7281 26.1019 13.9668 23.3405 13.9668 19.9717C13.9668 16.6581 16.7834 13.8968 20.097 13.952C23.521 14.0072 26.2272 16.7133 26.1719 20.0269ZM23.9629 20.0269C23.9629 17.9283 22.2508 16.2163 20.1522 16.2163C18.0536 16.2163 16.2863 17.9283 16.2863 20.0269C16.2863 22.1256 17.9984 23.8376 20.097 23.8376C22.1956 23.7824 23.9076 22.0703 23.9629 20.0269Z" fill="#0E2333"/>
<path d="M26.3378 12.3506C27.1662 12.3506 27.8289 13.0133 27.8289 13.7865C27.8289 14.5597 27.1662 15.2224 26.393 15.2224C25.5646 15.2224 24.9019 14.6149 24.8467 13.7865C24.8467 13.0133 25.5094 12.3506 26.3378 12.3506Z" fill="#0E2333"/>
</svg>
