<svg width="16" height="16" viewBox="0 0 16 16" fill="none" xmlns="http://www.w3.org/2000/svg">
<path d="M8 14.4C11.536 14.4 14.4 11.536 14.4 8C14.4 4.464 11.536 1.6 8 1.6C4.464 1.6 1.6 4.464 1.6 8C1.6 11.536 4.464 14.4 8 14.4ZM8 0C12.4 0 16 3.6 16 8C16 12.4 12.4 16 8 16C3.576 16 0 12.4 0 8C0 3.6 3.6 0 8 0ZM8.51605 8.73298C8.44002 8.77689 8.35378 8.8 8.26599 8.8H7.7C7.42386 8.8 7.2 8.57614 7.2 8.3V4.5C7.2 4.22386 7.42386 4 7.7 4H7.9C8.17614 4 8.4 4.22386 8.4 4.5V7.408L10.9271 5.95322C11.1662 5.81554 11.4717 5.89766 11.6096 6.13669L11.7103 6.3111C11.8482 6.55022 11.7663 6.85589 11.5272 6.99394L8.51605 8.73298Z" fill="#2D5265"/>
</svg>
