<svg width="24" height="24" viewBox="0 0 24 24" fill="none" xmlns="http://www.w3.org/2000/svg">
<path fill-rule="evenodd" clip-rule="evenodd" d="M1.2 12C1.2 17.9647 6.03533 22.8 12 22.8C17.9647 22.8 22.8 17.9647 22.8 12C22.8 6.03533 17.9647 1.2 12 1.2C6.03533 1.2 1.2 6.03533 1.2 12ZM12 0C5.37258 0 0 5.37258 0 12C0 18.6274 5.37258 24 12 24C18.6274 24 24 18.6274 24 12C24 5.37258 18.6274 0 12 0Z" fill="#0E2333"/>
<path d="M6 16.7062C7.45962 16.8322 8.72885 16.4855 9.90289 15.666C9.64904 15.603 9.42692 15.5715 9.23654 15.5085C8.44327 15.2563 7.90384 14.752 7.55481 13.9956C7.45961 13.7749 7.45961 13.7434 7.71346 13.7434C7.96731 13.7434 8.22115 13.7749 8.53846 13.6804C8.0625 13.5543 7.68173 13.3337 7.36442 13.05C6.85673 12.5772 6.53942 11.9784 6.50769 11.285C6.47596 11.0013 6.50769 10.9698 6.76154 11.0959C7.01538 11.2219 7.26923 11.285 7.58654 11.285C7.39615 11.0644 7.17404 10.9068 7.04712 10.6861C6.44423 9.83514 6.34904 8.9211 6.76154 7.97555C6.85673 7.7234 6.92019 7.7234 7.11058 7.91251C8.03077 8.9211 9.10961 9.67754 10.4106 10.1188C10.9817 10.3079 11.5529 10.434 12.1558 10.497C12.4731 10.5285 12.5048 10.497 12.4413 10.1818C12.3144 9.11021 12.9173 8.00707 13.901 7.50277C14.8846 6.99848 16.1538 7.12455 16.9471 7.88099C17.1058 8.03859 17.2644 8.03859 17.4548 8.00707C17.8673 7.88099 18.2798 7.75492 18.6606 7.53429C18.724 7.50277 18.7875 7.43974 18.8827 7.47125C18.6923 8.03859 18.3433 8.47984 17.8673 8.85806C18.3115 8.79503 18.7558 8.66895 19.2 8.51136C19.2 8.66895 19.1048 8.73199 19.0731 8.82655C18.7875 9.17325 18.5019 9.48843 18.1529 9.74058C17.9942 9.86665 17.9308 9.99273 17.9308 10.2134C17.9625 12.0099 17.3913 13.6173 16.3125 15.0357C15.0433 16.7377 13.2981 17.6832 11.2038 17.9354C9.45865 18.156 7.80865 17.8093 6.28558 16.9583C6.22211 16.9268 6.19038 16.8953 6.12692 16.8637C6.06346 16.8007 6.06346 16.7692 6 16.7062Z" fill="#0E2333"/>
</svg>
