<svg width="551" height="381" viewBox="0 0 551 381" fill="none" xmlns="http://www.w3.org/2000/svg">
<g clip-path="url(#clip0_1190_2546)">
<path d="M240.906 154.01L235.111 177.628H227.037L223.787 163.156L220.471 177.628H212.397L206.668 154.01H213.77L216.518 170.158L220.236 154.01H227.439L231.057 170.024L233.804 154.01H240.906ZM255.016 177.863C252.805 177.863 250.773 177.349 248.919 176.322C247.065 175.272 245.591 173.832 244.497 172C243.425 170.146 242.889 168.058 242.889 165.735C242.889 163.413 243.425 161.336 244.497 159.504C245.591 157.651 247.065 156.21 248.919 155.183C250.773 154.155 252.805 153.642 255.016 153.642C257.25 153.642 259.282 154.155 261.114 155.183C262.967 156.21 264.43 157.651 265.502 159.504C266.574 161.336 267.11 163.413 267.11 165.735C267.11 168.058 266.574 170.146 265.502 172C264.43 173.832 262.967 175.272 261.114 176.322C259.26 177.349 257.227 177.863 255.016 177.863ZM255.016 171.766C256.691 171.766 258.009 171.219 258.969 170.124C259.952 169.03 260.443 167.567 260.443 165.735C260.443 163.859 259.952 162.385 258.969 161.313C258.009 160.219 256.691 159.672 255.016 159.672C253.319 159.672 251.99 160.219 251.03 161.313C250.069 162.385 249.589 163.859 249.589 165.735C249.589 167.589 250.069 169.063 251.03 170.158C251.99 171.23 253.319 171.766 255.016 171.766ZM282.022 177.628L277.332 168.918H276.628V177.628H270.062V154.01H280.414C282.312 154.01 283.92 154.345 285.238 155.015C286.556 155.663 287.55 156.567 288.22 157.729C288.89 158.868 289.225 160.152 289.225 161.581C289.225 163.189 288.778 164.608 287.885 165.836C287.014 167.042 285.729 167.902 284.032 168.416L289.359 177.628H282.022ZM276.628 164.429H279.878C280.771 164.429 281.441 164.217 281.888 163.792C282.335 163.368 282.558 162.754 282.558 161.95C282.558 161.19 282.323 160.599 281.854 160.174C281.408 159.728 280.749 159.504 279.878 159.504H276.628V164.429ZM306.181 177.628L298.777 167.277V177.628H292.211V154.01H298.777V164.194L306.114 154.01H313.685L305.008 165.467L314.121 177.628H306.181ZM329.497 154.01V177.628H322.931V154.01H329.497ZM355.113 177.628H348.547L339.803 164.429V177.628H333.237V154.01H339.803L348.547 167.377V154.01H355.113V177.628ZM383.926 161.883C383.926 163.312 383.591 164.619 382.921 165.802C382.273 166.964 381.279 167.902 379.939 168.617C378.622 169.309 377.002 169.655 375.082 169.655H371.832V177.628H365.266V154.01H375.082C376.98 154.01 378.588 154.345 379.906 155.015C381.246 155.685 382.251 156.612 382.921 157.796C383.591 158.979 383.926 160.342 383.926 161.883ZM374.445 164.429C376.299 164.429 377.226 163.58 377.226 161.883C377.226 160.163 376.299 159.303 374.445 159.303H371.832V164.429H374.445ZM398.524 177.628L393.834 168.918H393.13V177.628H386.564V154.01H396.916C398.814 154.01 400.422 154.345 401.74 155.015C403.058 155.663 404.052 156.567 404.722 157.729C405.392 158.868 405.727 160.152 405.727 161.581C405.727 163.189 405.28 164.608 404.387 165.836C403.516 167.042 402.231 167.902 400.534 168.416L405.861 177.628H398.524ZM393.13 164.429H396.38C397.273 164.429 397.943 164.217 398.39 163.792C398.837 163.368 399.06 162.754 399.06 161.95C399.06 161.19 398.825 160.599 398.356 160.174C397.91 159.728 397.251 159.504 396.38 159.504H393.13V164.429ZM420.036 177.863C417.825 177.863 415.793 177.349 413.939 176.322C412.085 175.272 410.611 173.832 409.517 172C408.445 170.146 407.909 168.058 407.909 165.735C407.909 163.413 408.445 161.336 409.517 159.504C410.611 157.651 412.085 156.21 413.939 155.183C415.793 154.155 417.825 153.642 420.036 153.642C422.27 153.642 424.302 154.155 426.133 155.183C427.987 156.21 429.45 157.651 430.522 159.504C431.594 161.336 432.13 163.413 432.13 165.735C432.13 168.058 431.594 170.146 430.522 172C429.45 173.832 427.987 175.272 426.133 176.322C424.28 177.349 422.247 177.863 420.036 177.863ZM420.036 171.766C421.711 171.766 423.029 171.219 423.989 170.124C424.972 169.03 425.463 167.567 425.463 165.735C425.463 163.859 424.972 162.385 423.989 161.313C423.029 160.219 421.711 159.672 420.036 159.672C418.339 159.672 417.01 160.219 416.05 161.313C415.089 162.385 414.609 163.859 414.609 165.735C414.609 167.589 415.089 169.063 416.05 170.158C417.01 171.23 418.339 171.766 420.036 171.766ZM450.157 161.782C449.778 161.157 449.253 160.677 448.583 160.342C447.935 160.007 447.165 159.839 446.271 159.839C444.619 159.839 443.312 160.375 442.352 161.447C441.414 162.519 440.945 163.96 440.945 165.769C440.945 167.801 441.447 169.354 442.452 170.426C443.48 171.475 444.965 172 446.908 172C449.208 172 450.85 170.962 451.833 168.885H445.233V164.161H457.494V170.526C456.981 171.777 456.221 172.949 455.216 174.044C454.233 175.138 452.983 176.043 451.464 176.757C449.945 177.45 448.214 177.796 446.271 177.796C443.904 177.796 441.804 177.293 439.973 176.288C438.164 175.261 436.757 173.843 435.752 172.034C434.769 170.202 434.278 168.114 434.278 165.769C434.278 163.446 434.769 161.38 435.752 159.571C436.757 157.74 438.164 156.322 439.973 155.317C441.782 154.289 443.87 153.776 446.238 153.776C449.208 153.776 451.665 154.49 453.608 155.92C455.551 157.349 456.757 159.303 457.226 161.782H450.157ZM472.397 177.628L467.707 168.918H467.003V177.628H460.437V154.01H470.789C472.687 154.01 474.295 154.345 475.613 155.015C476.931 155.663 477.924 156.567 478.595 157.729C479.265 158.868 479.6 160.152 479.6 161.581C479.6 163.189 479.153 164.608 478.26 165.836C477.388 167.042 476.104 167.902 474.407 168.416L479.734 177.628H472.397ZM467.003 164.429H470.253C471.146 164.429 471.816 164.217 472.263 163.792C472.709 163.368 472.933 162.754 472.933 161.95C472.933 161.19 472.698 160.599 472.229 160.174C471.783 159.728 471.124 159.504 470.253 159.504H467.003V164.429ZM489.152 159.27V163.122H496.69V168.114H489.152V172.369H497.695V177.628H482.586V154.01H497.695V159.27H489.152ZM509.851 177.863C507.104 177.863 504.848 177.215 503.083 175.92C501.319 174.602 500.37 172.726 500.236 170.292H507.238C507.305 171.118 507.55 171.721 507.975 172.101C508.399 172.48 508.946 172.67 509.616 172.67C510.219 172.67 510.711 172.525 511.09 172.235C511.492 171.922 511.693 171.498 511.693 170.962C511.693 170.269 511.369 169.733 510.722 169.354C510.074 168.974 509.024 168.55 507.573 168.081C506.032 167.567 504.781 167.076 503.82 166.607C502.882 166.115 502.056 165.412 501.341 164.496C500.649 163.558 500.303 162.341 500.303 160.844C500.303 159.326 500.682 158.03 501.442 156.958C502.201 155.864 503.251 155.037 504.591 154.479C505.931 153.921 507.45 153.642 509.147 153.642C511.894 153.642 514.083 154.289 515.713 155.585C517.366 156.858 518.248 158.656 518.36 160.978H511.224C511.202 160.264 510.979 159.728 510.554 159.37C510.152 159.013 509.627 158.834 508.98 158.834C508.488 158.834 508.086 158.979 507.774 159.27C507.461 159.56 507.305 159.973 507.305 160.509C507.305 160.956 507.472 161.347 507.807 161.682C508.164 161.994 508.6 162.274 509.114 162.519C509.627 162.743 510.387 163.033 511.392 163.39C512.888 163.904 514.116 164.418 515.077 164.931C516.06 165.423 516.897 166.126 517.589 167.042C518.304 167.935 518.662 169.074 518.662 170.459C518.662 171.866 518.304 173.128 517.589 174.245C516.897 175.361 515.881 176.244 514.541 176.891C513.223 177.539 511.66 177.863 509.851 177.863ZM530.625 177.863C527.878 177.863 525.623 177.215 523.858 175.92C522.094 174.602 521.145 172.726 521.011 170.292H528.012C528.079 171.118 528.325 171.721 528.749 172.101C529.174 172.48 529.721 172.67 530.391 172.67C530.994 172.67 531.485 172.525 531.865 172.235C532.267 171.922 532.468 171.498 532.468 170.962C532.468 170.269 532.144 169.733 531.496 169.354C530.849 168.974 529.799 168.55 528.347 168.081C526.806 167.567 525.556 167.076 524.595 166.607C523.657 166.115 522.831 165.412 522.116 164.496C521.424 163.558 521.078 162.341 521.078 160.844C521.078 159.326 521.457 158.03 522.217 156.958C522.976 155.864 524.026 155.037 525.366 154.479C526.706 153.921 528.224 153.642 529.922 153.642C532.669 153.642 534.858 154.289 536.488 155.585C538.141 156.858 539.023 158.656 539.135 160.978H531.999C531.977 160.264 531.753 159.728 531.329 159.37C530.927 159.013 530.402 158.834 529.754 158.834C529.263 158.834 528.861 158.979 528.548 159.27C528.236 159.56 528.079 159.973 528.079 160.509C528.079 160.956 528.247 161.347 528.582 161.682C528.939 161.994 529.375 162.274 529.888 162.519C530.402 162.743 531.161 163.033 532.166 163.39C533.663 163.904 534.891 164.418 535.852 164.931C536.834 165.423 537.672 166.126 538.364 167.042C539.079 167.935 539.436 169.074 539.436 170.459C539.436 171.866 539.079 173.128 538.364 174.245C537.672 175.361 536.656 176.244 535.316 176.891C533.998 177.539 532.434 177.863 530.625 177.863Z" fill="url(#paint0_linear_1190_2546)"/>
<path d="M503.707 333.361L489.502 341.187L489.502 343.385L503.707 343.385L503.707 352.551L466.078 352.551L466.078 337.167C466.078 334.201 466.597 331.682 467.633 329.609C468.669 327.501 470.099 325.929 471.921 324.892C473.708 323.856 475.709 323.338 477.924 323.338C480.426 323.338 482.659 324.053 484.625 325.482C486.59 326.876 487.984 328.948 488.806 331.7L503.707 323.016L503.707 333.361ZM483.017 343.385L483.017 337.703C483.017 336.024 482.606 334.773 481.784 333.951C480.962 333.093 479.801 332.665 478.3 332.665C476.87 332.665 475.745 333.093 474.923 333.951C474.101 334.773 473.69 336.024 473.69 337.703L473.69 343.385L483.017 343.385ZM497.06 294.16L497.06 308.204L503.707 310.455L503.707 320.05L466.078 306.435L466.078 295.822L503.707 282.207L503.707 291.909L497.06 294.16ZM489.985 296.518L476.209 301.182L489.985 305.792L489.985 296.518ZM466.078 250.994L473.422 250.994L473.422 260.964L503.707 260.964L503.707 270.13L473.422 270.13L473.422 280.1L466.078 280.1L466.078 250.994ZM466.078 237.228L503.707 237.228L503.707 246.394L466.078 246.394L466.078 237.228ZM504.082 212.79C504.082 216.327 503.26 219.579 501.617 222.545C499.973 225.475 497.686 227.816 494.755 229.567C491.79 231.282 488.466 232.14 484.786 232.14C481.105 232.14 477.799 231.282 474.869 229.567C471.939 227.816 469.652 225.475 468.008 222.545C466.364 219.579 465.542 216.327 465.542 212.79C465.542 209.252 466.364 206.018 468.008 203.088C469.652 200.122 471.939 197.799 474.869 196.119C477.799 194.404 481.105 193.546 484.786 193.546C488.466 193.546 491.79 194.404 494.755 196.119C497.686 197.835 499.973 200.157 501.617 203.088C503.26 206.018 504.082 209.252 504.082 212.79ZM495.72 212.79C495.72 209.788 494.72 207.394 492.719 205.607C490.717 203.784 488.073 202.873 484.786 202.873C481.462 202.873 478.818 203.784 476.852 205.607C474.851 207.394 473.851 209.788 473.851 212.79C473.851 215.827 474.833 218.257 476.799 220.079C478.764 221.866 481.426 222.76 484.786 222.76C488.109 222.76 490.771 221.866 492.772 220.079C494.738 218.257 495.72 215.827 495.72 212.79Z" fill="#3126CA"/>
<path d="M435.178 373.873L448.193 373.873C449.494 373.873 450.496 373.552 451.199 372.912C451.901 372.272 452.252 371.332 452.252 370.092C452.252 368.852 451.901 367.902 451.199 367.241C450.496 366.58 449.494 366.249 448.193 366.249L435.178 366.249L435.178 360.95L448.162 360.95C450.104 360.95 451.746 361.364 453.089 362.19C454.432 363.016 455.444 364.132 456.126 365.537C456.808 366.921 457.149 368.47 457.149 370.185C457.149 371.9 456.818 373.439 456.157 374.802C455.475 376.145 454.463 377.209 453.12 377.994C451.757 378.779 450.104 379.172 448.162 379.172L435.178 379.172L435.178 373.873ZM435.178 341.58L439.423 341.58L439.423 347.344L456.932 347.344L456.932 352.643L439.423 352.643L439.423 358.407L435.178 358.407L435.178 341.58ZM435.178 333.621L456.932 333.621L456.932 338.921L435.178 338.921L435.178 333.621ZM452.841 324.482L452.841 317.541L456.932 317.541L456.932 329.781L435.178 329.781L435.178 324.482L452.841 324.482ZM435.178 309.714L456.932 309.714L456.932 315.013L435.178 315.013L435.178 309.714ZM452.593 300.234L452.593 290.876L456.932 290.876L456.932 306.246L452.903 306.246L439.516 296.949L439.516 306.246L435.178 306.246L435.178 290.876L439.206 290.876L452.593 300.234ZM453.089 273.872L453.089 281.991L456.932 283.292L456.932 288.839L435.178 280.968L435.178 274.833L456.932 266.961L456.932 272.57L453.089 273.872ZM448.999 275.235L441.034 277.931L448.999 280.596L448.999 275.235ZM435.178 248.917L439.423 248.917L439.423 254.681L456.932 254.681L456.932 259.98L439.423 259.98L439.423 265.743L435.178 265.743L435.178 248.917ZM435.178 240.958L456.932 240.958L456.932 246.257L435.178 246.257L435.178 240.958ZM457.149 226.83C457.149 228.875 456.673 230.755 455.723 232.47C454.773 234.164 453.451 235.517 451.757 236.529C450.042 237.521 448.121 238.017 445.993 238.017C443.865 238.017 441.954 237.521 440.26 236.529C438.566 235.517 437.244 234.164 436.293 232.47C435.343 230.755 434.868 228.875 434.868 226.83C434.868 224.784 435.343 222.915 436.293 221.221C437.244 219.506 438.566 218.163 440.26 217.192C441.954 216.201 443.865 215.705 445.993 215.705C448.121 215.705 450.042 216.201 451.757 217.192C453.451 218.184 454.773 219.527 455.723 221.221C456.673 222.915 457.149 224.784 457.149 226.83ZM452.314 226.83C452.314 225.094 451.736 223.71 450.579 222.677C449.422 221.624 447.893 221.097 445.993 221.097C444.071 221.097 442.543 221.624 441.406 222.677C440.249 223.71 439.671 225.094 439.671 226.83C439.671 228.586 440.239 229.991 441.375 231.044C442.512 232.077 444.051 232.594 445.993 232.594C447.914 232.594 449.453 232.077 450.61 231.044C451.746 229.991 452.314 228.586 452.314 226.83ZM456.932 193.296L456.932 198.595L443.514 207.458L456.932 207.458L456.932 212.757L435.178 212.757L435.178 207.458L448.658 198.595L435.178 198.595L435.178 193.296L456.932 193.296Z" fill="#3126CA"/>
<path d="M394.59 269.488L398.262 269.488L398.262 274.473L413.405 274.473L413.405 279.056L398.262 279.056L398.262 284.041L394.59 284.041L394.59 269.488ZM413.405 257.593L406.303 261.506L406.303 262.605L413.405 262.605L413.405 267.188L394.59 267.188L394.59 259.496C394.59 258.013 394.85 256.753 395.368 255.717C395.886 254.663 396.601 253.877 397.512 253.359C398.405 252.84 399.406 252.581 400.513 252.581C401.764 252.581 402.881 252.939 403.864 253.653C404.846 254.35 405.543 255.386 405.954 256.762L413.405 252.42L413.405 257.593ZM403.06 262.605L403.06 259.764C403.06 258.924 402.854 258.299 402.443 257.888C402.032 257.459 401.452 257.245 400.701 257.245C399.986 257.245 399.424 257.459 399.013 257.888C398.602 258.299 398.396 258.924 398.396 259.764L398.396 262.605L403.06 262.605ZM410.081 237.992L410.081 245.014L413.405 246.14L413.405 250.937L394.59 244.13L394.59 238.823L413.405 232.016L413.405 236.867L410.081 237.992ZM406.544 239.172L399.656 241.503L406.544 243.808L406.544 239.172ZM403.971 230.721C402.113 230.721 400.46 230.319 399.013 229.515C397.548 228.711 396.413 227.594 395.609 226.165C394.787 224.718 394.376 223.083 394.376 221.26C394.376 219.027 394.966 217.115 396.145 215.525C397.324 213.935 398.932 212.872 400.969 212.336L400.969 217.374C400.183 217.749 399.584 218.285 399.173 218.982C398.762 219.661 398.557 220.438 398.557 221.314C398.557 222.725 399.048 223.869 400.031 224.744C401.014 225.62 402.327 226.058 403.971 226.058C405.615 226.058 406.928 225.62 407.911 224.744C408.893 223.869 409.385 222.725 409.385 221.314C409.385 220.438 409.179 219.661 408.768 218.982C408.357 218.285 407.759 217.749 406.973 217.374L406.973 212.336C409.009 212.872 410.617 213.935 411.797 215.525C412.958 217.115 413.539 219.027 413.539 221.26C413.539 223.083 413.137 224.718 412.333 226.165C411.511 227.594 410.376 228.711 408.929 229.515C407.482 230.319 405.829 230.721 403.971 230.721ZM413.405 198.621L405.096 204.946L413.405 204.946L413.405 209.529L394.59 209.529L394.59 204.946L402.845 204.946L394.59 198.675L394.59 193.288L403.81 200.577L413.405 193.02L413.405 198.621Z" fill="#3126CA" fill-opacity="0.2"/>
<path d="M159.859 171.966C159.859 172.997 159.691 173.922 159.356 174.739C159.021 175.557 158.526 176.214 157.869 176.709C157.212 177.192 156.422 177.446 155.497 177.473L155.497 173.815C156.02 173.761 156.422 173.58 156.703 173.272C156.971 172.964 157.105 172.562 157.105 172.066C157.105 171.557 156.991 171.155 156.763 170.86C156.522 170.565 156.194 170.418 155.779 170.418C155.43 170.418 155.142 170.538 154.914 170.78C154.686 171.007 154.499 171.296 154.351 171.644C154.204 171.979 154.036 172.461 153.849 173.091C153.567 174.002 153.286 174.746 153.005 175.322C152.723 175.899 152.308 176.394 151.758 176.81C151.209 177.225 150.492 177.433 149.608 177.433C148.294 177.433 147.269 176.957 146.532 176.006C145.782 175.054 145.407 173.815 145.407 172.287C145.407 170.733 145.782 169.48 146.532 168.528C147.269 167.577 148.301 167.068 149.628 167.001L149.628 170.719C149.172 170.746 148.817 170.914 148.562 171.222C148.294 171.53 148.16 171.925 148.16 172.408C148.16 172.823 148.274 173.158 148.502 173.413C148.716 173.667 149.031 173.795 149.447 173.795C149.902 173.795 150.258 173.58 150.512 173.151C150.767 172.723 151.041 172.053 151.336 171.141C151.644 170.23 151.939 169.493 152.221 168.93C152.502 168.354 152.911 167.858 153.447 167.443C153.983 167.027 154.673 166.82 155.517 166.82C156.321 166.82 157.052 167.027 157.708 167.443C158.365 167.845 158.887 168.435 159.276 169.212C159.665 169.989 159.859 170.907 159.859 171.966ZM145.608 154.554L148.361 154.554L148.361 158.292L159.718 158.292L159.718 161.73L148.361 161.73L148.361 165.468L145.608 165.468L145.608 154.554ZM159.859 146.155C159.859 147.482 159.551 148.701 158.934 149.813C158.318 150.912 157.46 151.79 156.361 152.447C155.249 153.09 154.003 153.411 152.623 153.411C151.242 153.411 150.003 153.09 148.904 152.447C147.805 151.79 146.948 150.912 146.331 149.813C145.715 148.701 145.407 147.482 145.407 146.155C145.407 144.828 145.715 143.616 146.331 142.517C146.948 141.405 147.805 140.534 148.904 139.904C150.003 139.261 151.242 138.939 152.623 138.939C154.003 138.939 155.249 139.261 156.361 139.904C157.46 140.547 158.318 141.418 158.934 142.517C159.551 143.616 159.859 144.828 159.859 146.155ZM156.723 146.155C156.723 145.029 156.348 144.132 155.598 143.462C154.847 142.778 153.856 142.436 152.623 142.436C151.376 142.436 150.385 142.778 149.648 143.462C148.897 144.132 148.522 145.029 148.522 146.155C148.522 147.294 148.891 148.205 149.628 148.889C150.365 149.559 151.363 149.894 152.623 149.894C153.869 149.894 154.867 149.559 155.618 148.889C156.355 148.205 156.723 147.294 156.723 146.155ZM159.718 129.831L154.392 132.765L154.392 133.589L159.718 133.589L159.718 137.027L145.608 137.027L145.608 131.258C145.608 130.146 145.802 129.201 146.19 128.424C146.579 127.633 147.115 127.043 147.799 126.655C148.469 126.266 149.219 126.072 150.05 126.072C150.988 126.072 151.825 126.34 152.562 126.876C153.299 127.398 153.822 128.176 154.13 129.207L159.718 125.951L159.718 129.831ZM151.959 133.589L151.959 131.459C151.959 130.829 151.805 130.36 151.497 130.052C151.189 129.73 150.753 129.569 150.191 129.569C149.654 129.569 149.232 129.73 148.924 130.052C148.616 130.36 148.462 130.829 148.462 131.459L148.462 133.589L151.959 133.589ZM145.608 111.813L155.055 116.698L159.718 116.698L159.718 120.135L155.055 120.135L145.608 125.02L145.608 121.12L151.517 118.386L145.608 115.673L145.608 111.813ZM170.608 171.785C170.608 170.297 170.902 168.997 171.492 167.885C172.082 166.773 172.912 165.915 173.984 165.312C175.043 164.696 176.269 164.388 177.663 164.388C179.043 164.388 180.269 164.696 181.341 165.312C182.413 165.915 183.244 166.78 183.834 167.905C184.423 169.017 184.718 170.311 184.718 171.785L184.718 177.071L170.608 177.071L170.608 171.785ZM181.743 172.006C181.743 170.706 181.388 169.694 180.678 168.971C179.968 168.247 178.963 167.885 177.663 167.885C176.363 167.885 175.351 168.247 174.628 168.971C173.904 169.694 173.542 170.706 173.542 172.006L173.542 173.634L181.743 173.634L181.743 172.006ZM173.361 159.029L176.216 159.029L176.216 154.426L178.869 154.426L178.869 159.029L181.964 159.029L181.964 153.823L184.718 153.823L184.718 162.467L170.608 162.467L170.608 153.823L173.361 153.823L173.361 159.029ZM177.643 152.175C176.249 152.175 175.01 151.873 173.924 151.27C172.825 150.667 171.974 149.83 171.371 148.758C170.755 147.672 170.447 146.446 170.447 145.079C170.447 143.404 170.889 141.97 171.773 140.778C172.658 139.585 173.864 138.788 175.392 138.386L175.392 142.165C174.802 142.446 174.353 142.848 174.045 143.371C173.737 143.88 173.582 144.463 173.582 145.119C173.582 146.178 173.951 147.036 174.688 147.692C175.425 148.349 176.41 148.677 177.643 148.677C178.876 148.677 179.861 148.349 180.598 147.692C181.335 147.036 181.703 146.178 181.703 145.119C181.703 144.463 181.549 143.88 181.241 143.371C180.933 142.848 180.484 142.446 179.894 142.165L179.894 138.386C181.422 138.788 182.628 139.585 183.512 140.778C184.383 141.97 184.819 143.404 184.819 145.079C184.819 146.446 184.517 147.672 183.914 148.758C183.298 149.83 182.447 150.667 181.361 151.27C180.276 151.873 179.036 152.175 177.643 152.175ZM184.859 129.607C184.859 130.934 184.551 132.153 183.934 133.266C183.318 134.364 182.46 135.242 181.361 135.899C180.249 136.542 179.003 136.864 177.623 136.864C176.242 136.864 175.003 136.542 173.904 135.899C172.805 135.242 171.948 134.364 171.331 133.266C170.715 132.153 170.407 130.934 170.407 129.607C170.407 128.281 170.715 127.068 171.331 125.969C171.948 124.857 172.805 123.986 173.904 123.356C175.003 122.713 176.242 122.391 177.623 122.391C179.003 122.391 180.249 122.713 181.361 123.356C182.46 123.999 183.318 124.87 183.934 125.969C184.551 127.068 184.859 128.281 184.859 129.607ZM181.723 129.607C181.723 128.482 181.348 127.584 180.598 126.914C179.847 126.23 178.856 125.889 177.623 125.889C176.376 125.889 175.385 126.23 174.648 126.914C173.897 127.584 173.522 128.482 173.522 129.607C173.522 130.746 173.891 131.658 174.628 132.341C175.365 133.011 176.363 133.346 177.623 133.346C178.869 133.346 179.867 133.011 180.618 132.341C181.355 131.658 181.723 130.746 181.723 129.607ZM170.608 104.499L184.718 104.499L184.718 107.936L176.256 107.936L184.718 111.092L184.718 113.866L176.236 117.042L184.718 117.042L184.718 120.479L170.608 120.479L170.608 116.419L180.376 112.459L170.608 108.539L170.608 104.499ZM175.15 91.2731C175.968 91.2731 176.718 91.4607 177.402 91.8359C178.072 92.2111 178.614 92.7874 179.03 93.5646C179.445 94.3418 179.653 95.3067 179.653 96.4591L179.653 98.5898L184.718 98.5898L184.718 102.027L170.608 102.027L170.608 96.4591C170.608 95.3335 170.802 94.382 171.19 93.6048C171.579 92.8276 172.115 92.2446 172.799 91.856C173.482 91.4674 174.266 91.2731 175.15 91.2731ZM176.919 96.7204C176.919 96.0638 176.765 95.5747 176.457 95.2531C176.149 94.9314 175.713 94.7706 175.15 94.7706C174.587 94.7706 174.152 94.9314 173.844 95.2531C173.536 95.5747 173.381 96.0638 173.381 96.7204L173.381 98.5898L176.919 98.5898L176.919 96.7204ZM184.859 82.8102C184.859 84.1369 184.551 85.3563 183.934 86.4685C183.318 87.5674 182.46 88.4451 181.361 89.1017C180.249 89.745 179.003 90.0666 177.623 90.0666C176.242 90.0666 175.003 89.745 173.904 89.1017C172.805 88.4451 171.948 87.5674 171.331 86.4686C170.715 85.3563 170.407 84.1369 170.407 82.8102C170.407 81.4836 170.715 80.2708 171.331 79.172C171.948 78.0597 172.805 77.1887 173.904 76.5589C175.003 75.9157 176.242 75.594 177.623 75.594C179.003 75.594 180.249 75.9157 181.361 76.5589C182.46 77.2021 183.318 78.0731 183.934 79.172C184.551 80.2708 184.859 81.4836 184.859 82.8102ZM181.723 82.8102C181.723 81.6846 181.348 80.7867 180.598 80.1167C179.847 79.4333 178.856 79.0916 177.623 79.0916C176.376 79.0916 175.385 79.4333 174.648 80.1167C173.897 80.7867 173.522 81.6846 173.522 82.8102C173.522 83.9493 173.891 84.8605 174.628 85.5439C175.365 86.2139 176.363 86.549 177.623 86.549C178.869 86.549 179.867 86.2139 180.618 85.5439C181.355 84.8605 181.723 83.9493 181.723 82.8102ZM184.859 68.5762C184.859 69.608 184.691 70.5327 184.356 71.3501C184.021 72.1675 183.526 72.8242 182.869 73.32C182.212 73.8024 181.422 74.057 180.497 74.0838L180.497 70.4255C181.02 70.3719 181.422 70.191 181.703 69.8828C181.971 69.5745 182.105 69.1725 182.105 68.6767C182.105 68.1675 181.991 67.7655 181.763 67.4707C181.522 67.1759 181.194 67.0284 180.779 67.0284C180.43 67.0284 180.142 67.1491 179.914 67.3903C179.686 67.6181 179.499 67.9062 179.351 68.2546C179.204 68.5896 179.036 69.072 178.849 69.7018C178.567 70.6131 178.286 71.3568 178.005 71.933C177.723 72.5093 177.308 73.0051 176.758 73.4205C176.209 73.8359 175.492 74.0436 174.608 74.0436C173.294 74.0436 172.269 73.5679 171.532 72.6165C170.782 71.665 170.407 70.4255 170.407 68.8978C170.407 67.3434 170.782 66.0904 171.532 65.139C172.269 64.1875 173.301 63.6783 174.628 63.6113L174.628 67.33C174.172 67.3568 173.817 67.5243 173.562 67.8325C173.294 68.1407 173.16 68.536 173.16 69.0184C173.16 69.4338 173.274 69.7689 173.502 70.0235C173.716 70.2781 174.031 70.4054 174.447 70.4054C174.902 70.4054 175.258 70.191 175.512 69.7622C175.767 69.3333 176.041 68.6633 176.336 67.7521C176.644 66.8408 176.939 66.1038 177.221 65.541C177.502 64.9648 177.911 64.469 178.447 64.0535C178.983 63.6381 179.673 63.4304 180.517 63.4304C181.321 63.4304 182.052 63.6381 182.708 64.0535C183.365 64.4556 183.887 65.0452 184.276 65.8224C184.665 66.5996 184.859 67.5176 184.859 68.5762ZM170.608 57.8779L184.718 57.8779L184.718 61.3151L170.608 61.3151L170.608 57.8779ZM170.608 45.2361L173.361 45.2361L173.361 48.9748L184.718 48.9748L184.718 52.4121L173.361 52.4121L173.361 56.1508L170.608 56.1508L170.608 45.2361ZM170.608 40.0738L184.718 40.0738L184.718 43.511L170.608 43.511L170.608 40.0738ZM184.859 30.9094C184.859 32.2361 184.551 33.4555 183.934 34.5678C183.318 35.6666 182.46 36.5443 181.361 37.201C180.249 37.8442 179.003 38.1658 177.623 38.1658C176.242 38.1658 175.003 37.8442 173.904 37.201C172.805 36.5443 171.948 35.6666 171.331 34.5678C170.715 33.4555 170.407 32.2361 170.407 30.9094C170.407 29.5828 170.715 28.37 171.331 27.2712C171.948 26.159 172.805 25.2879 173.904 24.6581C175.003 24.0149 176.242 23.6933 177.623 23.6933C179.003 23.6933 180.249 24.0149 181.361 24.6581C182.46 25.3013 183.318 26.1724 183.934 27.2712C184.551 28.37 184.859 29.5828 184.859 30.9094ZM181.723 30.9094C181.723 29.7838 181.348 28.886 180.598 28.2159C179.847 27.5325 178.856 27.1908 177.623 27.1908C176.376 27.1908 175.385 27.5325 174.648 28.2159C173.897 28.886 173.522 29.7838 173.522 30.9094C173.522 32.0485 173.891 32.9597 174.628 33.6431C175.365 34.3132 176.363 34.6482 177.623 34.6482C178.869 34.6482 179.867 34.3132 180.618 33.6431C181.355 32.9597 181.723 32.0485 181.723 30.9094ZM184.718 9.15774L184.718 12.595L176.015 18.3438L184.718 18.3438L184.718 21.781L170.608 21.781L170.608 18.3438L179.351 12.595L170.608 12.595L170.608 9.15774L184.718 9.15774Z" fill="#4884F8"/>
<path d="M10.0906 148.476H5.06539L4.30156 150.787H0.160806L5.3267 136.616H9.86947L15.0153 150.787H10.8544L10.0906 148.476ZM9.10564 145.46L7.57798 140.877L6.07043 145.46H9.10564ZM20.1587 136.616L20.1587 144.837C20.1587 145.601 20.3329 146.191 20.6813 146.606C21.0431 147.022 21.5859 147.229 22.3095 147.229C23.0331 147.229 23.5758 147.022 23.9376 146.606C24.3129 146.177 24.5005 145.588 24.5005 144.837L24.5005 136.616H28.4402L28.4402 144.837C28.4402 146.137 28.1655 147.249 27.6161 148.174C27.0667 149.085 26.3162 149.775 25.3648 150.244C24.4268 150.7 23.3815 150.928 22.2291 150.928C21.0766 150.928 20.0448 150.7 19.1336 150.244C18.2357 149.775 17.5255 149.085 17.0029 148.174C16.4937 147.263 16.2391 146.151 16.2391 144.837L16.2391 136.616H20.1587ZM41.2829 136.616L41.2829 139.752H37.5039L37.5039 150.787H33.5642L33.5642 139.752H29.8254L29.8254 136.616H41.2829ZM49.5345 150.928C48.2079 150.928 46.9884 150.62 45.8762 150.003C44.764 149.373 43.8795 148.509 43.2229 147.41C42.5797 146.298 42.2581 145.045 42.2581 143.651C42.2581 142.258 42.5797 141.011 43.2229 139.913C43.8795 138.8 44.764 137.936 45.8762 137.32C46.9884 136.703 48.2079 136.395 49.5345 136.395C50.8746 136.395 52.094 136.703 53.1929 137.32C54.3051 137.936 55.1829 138.8 55.8261 139.913C56.4693 141.011 56.7909 142.258 56.7909 143.651C56.7909 145.045 56.4693 146.298 55.8261 147.41C55.1829 148.509 54.3051 149.373 53.1929 150.003C52.0806 150.62 50.8612 150.928 49.5345 150.928ZM49.5345 147.269C50.5396 147.269 51.3302 146.941 51.9064 146.285C52.4961 145.628 52.7909 144.75 52.7909 143.651C52.7909 142.526 52.4961 141.641 51.9064 140.998C51.3302 140.341 50.5396 140.013 49.5345 140.013C48.5161 140.013 47.7188 140.341 47.1426 140.998C46.5663 141.641 46.2782 142.526 46.2782 143.651C46.2782 144.764 46.5663 145.648 47.1426 146.305C47.7188 146.948 48.5161 147.269 49.5345 147.269ZM75.1049 136.616L75.1049 150.787H71.1652L71.1652 142.968L68.4918 150.787H65.1952L62.5017 142.908L62.5017 150.787H58.562L58.562 136.616H63.3259L66.8837 145.822L70.3611 136.616H75.1049ZM86.3125 148.476H81.2873L80.5235 150.787H76.3827L81.5486 136.616H86.0914L91.2372 150.787H87.0763L86.3125 148.476ZM85.3276 145.46L83.7999 140.877L82.2923 145.46H85.3276ZM103.195 136.616L103.195 139.752H99.4158L99.4158 150.787L95.4761 150.787L95.4761 139.752L91.7373 139.752L91.7373 136.616L103.195 136.616ZM108.592 139.772L108.592 142.083H113.115L113.115 145.078H108.592L108.592 147.631H113.718L113.718 150.787H104.652L104.652 136.616H113.718L113.718 139.772H108.592ZM121.273 136.616C122.76 136.616 124.06 136.918 125.172 137.521C126.298 138.11 127.162 138.941 127.765 140.013C128.368 141.085 128.67 142.311 128.67 143.692C128.67 145.058 128.362 146.278 127.745 147.35C127.142 148.422 126.278 149.266 125.152 149.883C124.04 150.486 122.747 150.787 121.273 150.787H115.665L115.665 136.616H121.273ZM120.971 147.31C122.124 147.31 123.028 146.995 123.685 146.365C124.341 145.735 124.67 144.844 124.67 143.692C124.67 142.526 124.341 141.628 123.685 140.998C123.028 140.355 122.124 140.033 120.971 140.033H119.604L119.604 147.31H120.971ZM8.09056 176.963C6.03023 176.963 4.33841 176.477 3.01511 175.506C1.69181 174.517 0.979912 173.11 0.879408 171.285H6.13073C6.18098 171.904 6.36524 172.357 6.6835 172.641C7.00176 172.926 7.41215 173.068 7.91467 173.068C8.36694 173.068 8.73545 172.96 9.02022 172.742C9.32173 172.507 9.47248 172.189 9.47248 171.787C9.47248 171.268 9.2296 170.866 8.74383 170.581C8.25806 170.296 7.47078 169.978 6.38199 169.626C5.2262 169.241 4.28816 168.872 3.56788 168.521C2.86436 168.152 2.24458 167.625 1.70856 166.938C1.18929 166.234 0.92966 165.321 0.92966 164.199C0.92966 163.06 1.21442 162.088 1.78394 161.284C2.35346 160.464 3.14074 159.844 4.14578 159.425C5.15082 159.006 6.28986 158.797 7.56291 158.797C9.62324 158.797 11.2648 159.283 12.4876 160.254C13.7271 161.209 14.3888 162.557 14.4725 164.3H9.12072C9.10397 163.763 8.93646 163.361 8.6182 163.093C8.31669 162.825 7.92305 162.691 7.43728 162.691C7.06877 162.691 6.76726 162.8 6.53275 163.018C6.29824 163.236 6.18098 163.546 6.18098 163.948C6.18098 164.283 6.30661 164.576 6.55787 164.827C6.82588 165.062 7.15252 165.271 7.53778 165.455C7.92305 165.623 8.49257 165.841 9.24635 166.109C10.3686 166.494 11.2899 166.879 12.0102 167.264C12.7472 167.633 13.3754 168.161 13.8946 168.847C14.4307 169.517 14.6987 170.372 14.6987 171.41C14.6987 172.465 14.4307 173.412 13.8946 174.249C13.3754 175.087 12.6132 175.749 11.6082 176.234C10.6199 176.72 9.44736 176.963 8.09056 176.963ZM30.33 159.073L30.33 162.993H25.6063L25.6063 176.787H20.6816L20.6816 162.993H16.0082L16.0082 159.073H30.33ZM43.3582 173.898H37.0767L36.1219 176.787H30.9459L37.4033 159.073H43.0818L49.514 176.787H44.3129L43.3582 173.898ZM42.127 170.129L40.2174 164.4L38.333 170.129H42.127ZM64.461 159.073L64.461 162.993H59.7373L59.7373 176.787H54.8126L54.8126 162.993H50.1392L50.1392 159.073H64.461ZM71.1072 159.073L71.1072 169.35C71.1072 170.305 71.325 171.042 71.7605 171.561C72.2128 172.08 72.8912 172.34 73.7957 172.34C74.7002 172.34 75.3786 172.08 75.8309 171.561C76.2999 171.025 76.5344 170.288 76.5344 169.35L76.5344 159.073H81.4591L81.4591 169.35C81.4591 170.975 81.1157 172.365 80.4289 173.521C79.7422 174.66 78.8041 175.522 77.6148 176.109C76.4423 176.678 75.1357 176.963 73.6952 176.963C72.2546 176.963 70.9648 176.678 69.8258 176.109C68.7035 175.522 67.8157 174.66 67.1624 173.521C66.5259 172.382 66.2077 170.991 66.2077 169.35L66.2077 159.073H71.1072ZM90.854 176.963C88.7937 176.963 87.1019 176.477 85.7786 175.506C84.4553 174.517 83.7434 173.11 83.6429 171.285H88.8942C88.9445 171.904 89.1287 172.357 89.447 172.641C89.7653 172.926 90.1756 173.068 90.6782 173.068C91.1304 173.068 91.4989 172.96 91.7837 172.742C92.0852 172.507 92.236 172.189 92.236 171.787C92.236 171.268 91.9931 170.866 91.5073 170.581C91.0215 170.296 90.2343 169.978 89.1455 169.626C87.9897 169.241 87.0517 168.872 86.3314 168.521C85.6278 168.152 85.0081 167.625 84.4721 166.938C83.9528 166.234 83.6931 165.321 83.6931 164.199C83.6931 163.06 83.9779 162.088 84.5474 161.284C85.117 160.464 85.9042 159.844 86.9093 159.425C87.9143 159.006 89.0534 158.797 90.3264 158.797C92.3867 158.797 94.0283 159.283 95.2511 160.254C96.4906 161.209 97.1523 162.557 97.236 164.3H91.8842C91.8675 163.763 91.7 163.361 91.3817 163.093C91.0802 162.825 90.6865 162.691 90.2008 162.691C89.8323 162.691 89.5307 162.8 89.2962 163.018C89.0617 163.236 88.9445 163.546 88.9445 163.948C88.9445 164.283 89.0701 164.576 89.3214 164.827C89.5894 165.062 89.916 165.271 90.3013 165.455C90.6865 165.623 91.2561 165.841 92.0098 166.109C93.1321 166.494 94.0534 166.879 94.7737 167.264C95.5107 167.633 96.1389 168.161 96.6581 168.847C97.1942 169.517 97.4622 170.372 97.4622 171.41C97.4622 172.465 97.1942 173.412 96.6581 174.249C96.1389 175.087 95.3767 175.749 94.3717 176.234C93.3834 176.72 92.2108 176.963 90.854 176.963ZM104.676 163.018L104.676 165.908H110.33L110.33 169.651H104.676L104.676 172.842L111.083 172.842L111.083 176.787L99.7516 176.787L99.7516 159.073L111.083 159.073L111.083 163.018L104.676 163.018ZM120.2 176.963C118.14 176.963 116.448 176.477 115.125 175.506C113.802 174.517 113.09 173.11 112.989 171.285H118.241C118.291 171.904 118.475 172.357 118.793 172.641C119.112 172.926 119.522 173.068 120.024 173.068C120.477 173.068 120.845 172.96 121.13 172.742C121.432 172.507 121.582 172.189 121.582 171.787C121.582 171.268 121.339 170.866 120.854 170.581C120.368 170.296 119.581 169.978 118.492 169.626C117.336 169.241 116.398 168.872 115.678 168.521C114.974 168.152 114.354 167.625 113.818 166.938C113.299 166.234 113.039 165.321 113.039 164.199C113.039 163.06 113.324 162.088 113.894 161.284C114.463 160.464 115.251 159.844 116.256 159.425C117.261 159.006 118.4 158.797 119.673 158.797C121.733 158.797 123.375 159.283 124.597 160.254C125.837 161.209 126.499 162.557 126.582 164.3H121.231C121.214 163.763 121.046 163.361 120.728 163.093C120.426 162.825 120.033 162.691 119.547 162.691C119.179 162.691 118.877 162.8 118.643 163.018C118.408 163.236 118.291 163.546 118.291 163.948C118.291 164.283 118.416 164.576 118.668 164.827C118.936 165.062 119.262 165.271 119.648 165.455C120.033 165.623 120.602 165.841 121.356 166.109C122.478 166.494 123.4 166.879 124.12 167.264C124.857 167.633 125.485 168.161 126.004 168.847C126.54 169.517 126.808 170.372 126.808 171.41C126.808 172.465 126.54 173.412 126.004 174.249C125.485 175.087 124.723 175.749 123.718 176.234C122.73 176.72 121.557 176.963 120.2 176.963Z" fill="#7992D3"/>
<rect x="152.995" y="193.393" width="231.451" height="92.4509" rx="8.37531" fill="#6850D9"/>
<path d="M190.848 233.118H183.625L174.007 218.599V233.118H166.784V207.138H174.007L183.625 221.842V207.138H190.848V233.118ZM207.419 233.376C204.986 233.376 202.751 232.811 200.712 231.681C198.672 230.527 197.051 228.942 195.847 226.927C194.668 224.888 194.078 222.591 194.078 220.036C194.078 217.481 194.668 215.196 195.847 213.182C197.051 211.143 198.672 209.558 200.712 208.428C202.751 207.298 204.986 206.733 207.419 206.733C209.875 206.733 212.111 207.298 214.125 208.428C216.165 209.558 217.774 211.143 218.953 213.182C220.132 215.196 220.722 217.481 220.722 220.036C220.722 222.591 220.132 224.888 218.953 226.927C217.774 228.942 216.165 230.527 214.125 231.681C212.086 232.811 209.851 233.376 207.419 233.376ZM207.419 226.669C209.261 226.669 210.711 226.068 211.767 224.864C212.848 223.66 213.388 222.051 213.388 220.036C213.388 217.972 212.848 216.351 211.767 215.172C210.711 213.968 209.261 213.366 207.419 213.366C205.551 213.366 204.09 213.968 203.033 215.172C201.977 216.351 201.449 217.972 201.449 220.036C201.449 222.075 201.977 223.697 203.033 224.901C204.09 226.08 205.551 226.669 207.419 226.669ZM256.302 207.138L247.348 233.118H238.098L229.106 207.138H236.845L242.741 225.896L248.601 207.138H256.302ZM274.989 228.88H265.776L264.376 233.118H256.784L266.255 207.138H274.583L284.017 233.118H276.389L274.989 228.88ZM273.183 223.353L270.382 214.951L267.618 223.353H273.183ZM310.435 233.118H303.213L293.594 218.599V233.118H286.371V207.138H293.594L303.213 221.842V207.138H310.435V233.118ZM321.773 207.138V233.118H314.55V207.138H321.773ZM345.454 207.138V212.887H338.526V233.118H331.303V212.887H324.449V207.138H345.454ZM371.748 207.138L362.609 224.864V233.118H355.349V224.864L346.21 207.138H354.465L359.034 217.162L363.604 207.138H371.748ZM201.53 240.595V270.118H193.322V253.828L187.753 270.118H180.885L175.274 253.703V270.118H167.066V240.595H176.991L184.403 259.775L191.647 240.595H201.53ZM216.923 247.17V251.986H226.345V258.225H216.923V263.544H227.601V270.118H208.715V240.595H227.601V247.17H216.923ZM256.406 240.595V247.128H248.533V270.118H240.326V247.128H232.537V240.595H256.406ZM276.905 270.118L271.043 259.23H270.163V270.118H261.955V240.595H274.895C277.268 240.595 279.278 241.014 280.926 241.852C282.573 242.661 283.815 243.792 284.653 245.244C285.49 246.668 285.909 248.273 285.909 250.06C285.909 252.07 285.351 253.842 284.234 255.378C283.145 256.885 281.54 257.96 279.418 258.602L286.076 270.118H276.905ZM270.163 253.619H274.225C275.342 253.619 276.18 253.354 276.738 252.823C277.296 252.293 277.575 251.525 277.575 250.52C277.575 249.571 277.282 248.831 276.696 248.301C276.138 247.742 275.314 247.463 274.225 247.463H270.163V253.619ZM300.362 240.595V270.118H292.154V240.595H300.362ZM306.544 255.294C306.544 252.391 307.144 249.808 308.344 247.547C309.573 245.258 311.304 243.485 313.537 242.229C315.77 240.944 318.339 240.302 321.242 240.302C324.927 240.302 328.026 241.293 330.539 243.276C333.051 245.23 334.671 247.896 335.397 251.274H326.561C326.03 250.157 325.29 249.306 324.341 248.719C323.42 248.133 322.345 247.84 321.117 247.84C319.218 247.84 317.697 248.524 316.552 249.892C315.435 251.232 314.877 253.033 314.877 255.294C314.877 257.583 315.435 259.412 316.552 260.78C317.697 262.12 319.218 262.79 321.117 262.79C322.345 262.79 323.42 262.497 324.341 261.911C325.29 261.324 326.03 260.473 326.561 259.356H335.397C334.671 262.734 333.051 265.414 330.539 267.396C328.026 269.351 324.927 270.328 321.242 270.328C318.339 270.328 315.77 269.7 313.537 268.443C311.304 267.159 309.573 265.386 308.344 263.125C307.144 260.836 306.544 258.225 306.544 255.294ZM352.935 270.412C349.501 270.412 346.681 269.602 344.476 267.983C342.27 266.336 341.084 263.99 340.916 260.947H349.669C349.752 261.98 350.059 262.734 350.59 263.209C351.12 263.683 351.804 263.921 352.642 263.921C353.396 263.921 354.01 263.739 354.484 263.376C354.987 262.985 355.238 262.455 355.238 261.785C355.238 260.92 354.833 260.249 354.024 259.775C353.214 259.3 351.902 258.77 350.087 258.184C348.161 257.541 346.598 256.927 345.397 256.341C344.225 255.727 343.192 254.847 342.298 253.703C341.433 252.53 341 251.009 341 249.138C341 247.24 341.475 245.621 342.424 244.281C343.373 242.913 344.685 241.88 346.36 241.182C348.035 240.484 349.934 240.135 352.056 240.135C355.489 240.135 358.225 240.944 360.263 242.564C362.329 244.155 363.432 246.402 363.572 249.306H354.652C354.624 248.412 354.345 247.742 353.814 247.296C353.312 246.849 352.656 246.626 351.846 246.626C351.232 246.626 350.729 246.807 350.339 247.17C349.948 247.533 349.752 248.049 349.752 248.719C349.752 249.278 349.962 249.766 350.381 250.185C350.827 250.576 351.372 250.925 352.014 251.232C352.656 251.511 353.605 251.874 354.861 252.321C356.732 252.963 358.267 253.605 359.468 254.247C360.696 254.861 361.743 255.741 362.608 256.885C363.502 258.002 363.949 259.426 363.949 261.157C363.949 262.916 363.502 264.493 362.608 265.889C361.743 267.285 360.473 268.388 358.798 269.197C357.151 270.007 355.196 270.412 352.935 270.412Z" fill="white"/>
<g clip-path="url(#clip1_1190_2546)">
<path d="M301.534 298.836V316.55H296.61V298.836H301.534ZM320.746 316.55H315.821L309.264 306.65V316.55H304.339V298.836H309.264L315.821 308.862V298.836H320.746V316.55ZM335.044 316.726C332.984 316.726 331.292 316.24 329.969 315.269C328.645 314.28 327.933 312.873 327.833 311.047H333.084C333.135 311.667 333.319 312.12 333.637 312.404C333.955 312.689 334.366 312.831 334.868 312.831C335.321 312.831 335.689 312.723 335.974 312.505C336.275 312.27 336.426 311.952 336.426 311.55C336.426 311.031 336.183 310.629 335.697 310.344C335.212 310.059 334.424 309.741 333.336 309.389C332.18 309.004 331.242 308.635 330.521 308.284C329.818 307.915 329.198 307.387 328.662 306.701C328.143 305.997 327.883 305.084 327.883 303.962C327.883 302.823 328.168 301.851 328.738 301.047C329.307 300.227 330.094 299.607 331.099 299.188C332.104 298.769 333.243 298.56 334.516 298.56C336.577 298.56 338.218 299.046 339.441 300.017C340.681 300.972 341.342 302.32 341.426 304.062H336.074C336.058 303.526 335.89 303.124 335.572 302.856C335.27 302.588 334.877 302.454 334.391 302.454C334.022 302.454 333.721 302.563 333.486 302.781C333.252 302.999 333.135 303.309 333.135 303.711C333.135 304.046 333.26 304.339 333.511 304.59C333.779 304.825 334.106 305.034 334.491 305.218C334.877 305.386 335.446 305.604 336.2 305.872C337.322 306.257 338.243 306.642 338.964 307.027C339.701 307.396 340.329 307.923 340.848 308.61C341.384 309.28 341.652 310.135 341.652 311.173C341.652 312.228 341.384 313.175 340.848 314.012C340.329 314.85 339.567 315.512 338.562 315.997C337.573 316.483 336.401 316.726 335.044 316.726ZM357.937 304.741C357.937 305.813 357.686 306.793 357.183 307.681C356.697 308.552 355.952 309.255 354.947 309.791C353.959 310.31 352.744 310.57 351.304 310.57H348.866V316.55H343.942V298.836H351.304C352.727 298.836 353.933 299.088 354.922 299.59C355.927 300.093 356.681 300.788 357.183 301.675C357.686 302.563 357.937 303.585 357.937 304.741ZM350.826 306.65C352.216 306.65 352.912 306.014 352.912 304.741C352.912 303.451 352.216 302.806 350.826 302.806H348.866V306.65H350.826ZM368.885 316.55L365.368 310.017H364.84V316.55H359.915V298.836H367.679C369.103 298.836 370.309 299.088 371.297 299.59C372.286 300.076 373.031 300.754 373.534 301.625C374.036 302.48 374.287 303.443 374.287 304.515C374.287 305.721 373.952 306.784 373.282 307.706C372.629 308.61 371.666 309.255 370.393 309.64L374.388 316.55H368.885ZM364.84 306.65H367.277C367.947 306.65 368.45 306.491 368.785 306.173C369.12 305.855 369.287 305.394 369.287 304.791C369.287 304.222 369.111 303.778 368.76 303.459C368.425 303.124 367.93 302.957 367.277 302.957H364.84V306.65ZM381.452 298.836V316.55H376.527V298.836H381.452ZM400.663 316.55H395.739L389.181 306.65V316.55H384.256V298.836H389.181L395.739 308.862V298.836H400.663V316.55ZM416.81 298.836V302.756H412.087V316.55H407.162V302.756H402.489V298.836H416.81Z" fill="url(#paint1_linear_1190_2546)"/>
</g>
<g clip-path="url(#clip2_1190_2546)">
<path d="M239.057 322.287L232.952 340.001H226.645L220.514 322.287H225.791L229.811 335.076L233.806 322.287H239.057ZM247.275 340.177C245.215 340.177 243.523 339.691 242.2 338.72C240.876 337.731 240.165 336.324 240.064 334.498H245.315C245.366 335.118 245.55 335.57 245.868 335.855C246.186 336.14 246.597 336.282 247.099 336.282C247.552 336.282 247.92 336.173 248.205 335.956C248.506 335.721 248.657 335.403 248.657 335.001C248.657 334.482 248.414 334.08 247.928 333.795C247.443 333.51 246.655 333.192 245.567 332.84C244.411 332.455 243.473 332.086 242.752 331.735C242.049 331.366 241.429 330.838 240.893 330.152C240.374 329.448 240.114 328.535 240.114 327.413C240.114 326.274 240.399 325.302 240.969 324.498C241.538 323.677 242.325 323.058 243.33 322.639C244.335 322.22 245.474 322.011 246.747 322.011C248.808 322.011 250.449 322.497 251.672 323.468C252.912 324.423 253.573 325.771 253.657 327.513H248.305C248.289 326.977 248.121 326.575 247.803 326.307C247.501 326.039 247.108 325.905 246.622 325.905C246.253 325.905 245.952 326.014 245.717 326.232C245.483 326.45 245.366 326.76 245.366 327.162C245.366 327.497 245.491 327.79 245.742 328.041C246.01 328.276 246.337 328.485 246.722 328.669C247.108 328.837 247.677 329.054 248.431 329.322C249.553 329.708 250.475 330.093 251.195 330.478C251.932 330.847 252.56 331.374 253.079 332.061C253.615 332.731 253.883 333.585 253.883 334.624C253.883 335.679 253.615 336.626 253.079 337.463C252.56 338.301 251.798 338.962 250.793 339.448C249.804 339.934 248.632 340.177 247.275 340.177ZM269.952 340.001L266.434 333.468H265.907V340.001H260.982V322.287H268.746C270.17 322.287 271.376 322.538 272.364 323.041C273.352 323.527 274.098 324.205 274.6 325.076C275.103 325.93 275.354 326.894 275.354 327.966C275.354 329.172 275.019 330.235 274.349 331.157C273.696 332.061 272.733 332.706 271.459 333.091L275.454 340.001H269.952ZM265.907 330.101H268.344C269.014 330.101 269.516 329.942 269.851 329.624C270.186 329.306 270.354 328.845 270.354 328.242C270.354 327.673 270.178 327.229 269.826 326.91C269.491 326.575 268.997 326.408 268.344 326.408H265.907V330.101ZM282.518 326.232V329.121H288.172V332.865H282.518V336.056H288.925V340.001H277.594V322.287H288.925V326.232H282.518ZM302.665 328.116C302.381 327.647 301.987 327.287 301.485 327.036C300.999 326.785 300.421 326.659 299.751 326.659C298.511 326.659 297.531 327.061 296.811 327.865C296.108 328.669 295.756 329.75 295.756 331.106C295.756 332.631 296.133 333.795 296.887 334.599C297.657 335.386 298.771 335.78 300.228 335.78C301.954 335.78 303.185 335.001 303.922 333.443H298.972V329.9H308.168V334.674C307.783 335.612 307.213 336.492 306.46 337.313C305.722 338.133 304.784 338.812 303.645 339.348C302.506 339.867 301.208 340.127 299.751 340.127C297.975 340.127 296.401 339.75 295.027 338.996C293.67 338.225 292.615 337.162 291.861 335.805C291.124 334.431 290.756 332.865 290.756 331.106C290.756 329.364 291.124 327.815 291.861 326.458C292.615 325.085 293.67 324.021 295.027 323.267C296.384 322.497 297.95 322.111 299.726 322.111C301.954 322.111 303.796 322.647 305.253 323.719C306.711 324.791 307.615 326.257 307.967 328.116H302.665ZM319.345 340.001L315.827 333.468H315.3V340.001H310.375V322.287H318.139C319.563 322.287 320.769 322.538 321.757 323.041C322.745 323.527 323.491 324.205 323.993 325.076C324.496 325.93 324.747 326.894 324.747 327.966C324.747 329.172 324.412 330.235 323.742 331.157C323.089 332.061 322.126 332.706 320.853 333.091L324.848 340.001H319.345ZM315.3 330.101H317.737C318.407 330.101 318.909 329.942 319.244 329.624C319.58 329.306 319.747 328.845 319.747 328.242C319.747 327.673 319.571 327.229 319.219 326.91C318.884 326.575 318.39 326.408 317.737 326.408H315.3V330.101ZM331.911 326.232V329.121H337.565V332.865H331.911V336.056H338.318V340.001H326.987V322.287H338.318V326.232H331.911ZM347.435 340.177C345.375 340.177 343.683 339.691 342.36 338.72C341.037 337.731 340.325 336.324 340.224 334.498H345.476C345.526 335.118 345.71 335.57 346.028 335.855C346.347 336.14 346.757 336.282 347.26 336.282C347.712 336.282 348.08 336.173 348.365 335.956C348.667 335.721 348.817 335.403 348.817 335.001C348.817 334.482 348.574 334.08 348.089 333.795C347.603 333.51 346.816 333.192 345.727 332.84C344.571 332.455 343.633 332.086 342.913 331.735C342.209 331.366 341.589 330.838 341.053 330.152C340.534 329.448 340.275 328.535 340.275 327.413C340.275 326.274 340.559 325.302 341.129 324.498C341.698 323.677 342.486 323.058 343.491 322.639C344.496 322.22 345.635 322.011 346.908 322.011C348.968 322.011 350.61 322.497 351.832 323.468C353.072 324.423 353.734 325.771 353.817 327.513H348.466C348.449 326.977 348.281 326.575 347.963 326.307C347.662 326.039 347.268 325.905 346.782 325.905C346.414 325.905 346.112 326.014 345.878 326.232C345.643 326.45 345.526 326.76 345.526 327.162C345.526 327.497 345.651 327.79 345.903 328.041C346.171 328.276 346.497 328.485 346.883 328.669C347.268 328.837 347.837 329.054 348.591 329.322C349.713 329.708 350.635 330.093 351.355 330.478C352.092 330.847 352.72 331.374 353.24 332.061C353.776 332.731 354.044 333.585 354.044 334.624C354.044 335.679 353.776 336.626 353.24 337.463C352.72 338.301 351.958 338.962 350.953 339.448C349.965 339.934 348.792 340.177 347.435 340.177ZM363.016 340.177C360.956 340.177 359.264 339.691 357.941 338.72C356.618 337.731 355.906 336.324 355.805 334.498H361.057C361.107 335.118 361.291 335.57 361.609 335.855C361.928 336.14 362.338 336.282 362.841 336.282C363.293 336.282 363.661 336.173 363.946 335.956C364.248 335.721 364.398 335.403 364.398 335.001C364.398 334.482 364.155 334.08 363.67 333.795C363.184 333.51 362.397 333.192 361.308 332.84C360.152 332.455 359.214 332.086 358.494 331.735C357.79 331.366 357.17 330.838 356.634 330.152C356.115 329.448 355.856 328.535 355.856 327.413C355.856 326.274 356.14 325.302 356.71 324.498C357.279 323.677 358.067 323.058 359.072 322.639C360.077 322.22 361.216 322.011 362.489 322.011C364.549 322.011 366.191 322.497 367.413 323.468C368.653 324.423 369.315 325.771 369.398 327.513H364.047C364.03 326.977 363.862 326.575 363.544 326.307C363.243 326.039 362.849 325.905 362.363 325.905C361.995 325.905 361.693 326.014 361.459 326.232C361.224 326.45 361.107 326.76 361.107 327.162C361.107 327.497 361.233 327.79 361.484 328.041C361.752 328.276 362.078 328.485 362.464 328.669C362.849 328.837 363.418 329.054 364.172 329.322C365.295 329.708 366.216 330.093 366.936 330.478C367.673 330.847 368.301 331.374 368.821 332.061C369.357 332.731 369.625 333.585 369.625 334.624C369.625 335.679 369.357 336.626 368.821 337.463C368.301 338.301 367.539 338.962 366.534 339.448C365.546 339.934 364.373 340.177 363.016 340.177ZM376.839 322.287V340.001H371.914V322.287H376.839ZM388.136 340.177C386.477 340.177 384.953 339.792 383.563 339.021C382.172 338.234 381.067 337.153 380.246 335.78C379.442 334.39 379.04 332.823 379.04 331.081C379.04 329.339 379.442 327.781 380.246 326.408C381.067 325.018 382.172 323.937 383.563 323.167C384.953 322.396 386.477 322.011 388.136 322.011C389.811 322.011 391.335 322.396 392.709 323.167C394.099 323.937 395.196 325.018 396 326.408C396.804 327.781 397.206 329.339 397.206 331.081C397.206 332.823 396.804 334.39 396 335.78C395.196 337.153 394.099 338.234 392.709 339.021C391.318 339.792 389.794 340.177 388.136 340.177ZM388.136 335.604C389.392 335.604 390.38 335.194 391.101 334.373C391.838 333.552 392.206 332.455 392.206 331.081C392.206 329.674 391.838 328.569 391.101 327.765C390.38 326.944 389.392 326.533 388.136 326.533C386.863 326.533 385.866 326.944 385.146 327.765C384.425 328.569 384.065 329.674 384.065 331.081C384.065 332.472 384.425 333.577 385.146 334.398C385.866 335.202 386.863 335.604 388.136 335.604ZM415.827 340.001L410.903 340.001L404.345 330.101V340.001H399.42V322.287L404.345 322.287L410.903 332.312V322.287H415.827V340.001Z" fill="url(#paint2_linear_1190_2546)"/>
</g>
<g clip-path="url(#clip3_1190_2546)">
<path d="M360.597 354.356C361.636 354.591 362.457 355.11 363.06 355.914C363.679 356.701 363.989 357.606 363.989 358.628C363.989 360.135 363.47 361.316 362.432 362.17C361.393 363.025 359.936 363.452 358.06 363.452H349.291V345.738H357.783C359.592 345.738 361.008 346.14 362.03 346.944C363.068 347.748 363.587 348.879 363.587 350.336C363.587 351.375 363.311 352.246 362.758 352.949C362.222 353.636 361.502 354.105 360.597 354.356ZM354.215 352.773H356.703C357.942 352.773 358.562 352.262 358.562 351.241C358.562 350.185 357.942 349.658 356.703 349.658H354.215V352.773ZM357.08 359.482C358.319 359.482 358.939 358.963 358.939 357.924C358.939 357.388 358.772 356.978 358.437 356.693C358.118 356.408 357.658 356.266 357.055 356.266H354.215V359.482H357.08ZM370.972 345.738V356.015C370.972 356.969 371.19 357.706 371.625 358.226C372.077 358.745 372.756 359.005 373.66 359.005C374.565 359.005 375.243 358.745 375.696 358.226C376.165 357.69 376.399 356.953 376.399 356.015V345.738H381.324V356.015C381.324 357.639 380.98 359.03 380.294 360.186C379.607 361.325 378.669 362.187 377.479 362.774C376.307 363.343 375 363.628 373.56 363.628C372.119 363.628 370.829 363.343 369.69 362.774C368.568 362.187 367.68 361.325 367.027 360.186C366.391 359.046 366.072 357.656 366.072 356.015V345.738H370.972ZM395.342 351.567C395.057 351.098 394.663 350.738 394.161 350.487C393.675 350.236 393.097 350.11 392.427 350.11C391.188 350.11 390.208 350.512 389.487 351.316C388.784 352.12 388.432 353.201 388.432 354.557C388.432 356.082 388.809 357.246 389.563 358.05C390.333 358.837 391.447 359.231 392.905 359.231C394.63 359.231 395.861 358.452 396.598 356.894H391.648V353.351H400.844V358.125C400.459 359.063 399.89 359.943 399.136 360.763C398.399 361.584 397.461 362.263 396.322 362.799C395.183 363.318 393.885 363.578 392.427 363.578C390.652 363.578 389.077 363.201 387.704 362.447C386.347 361.676 385.291 360.613 384.538 359.256C383.801 357.882 383.432 356.316 383.432 354.557C383.432 352.815 383.801 351.266 384.538 349.909C385.291 348.535 386.347 347.472 387.704 346.718C389.06 345.947 390.627 345.562 392.402 345.562C394.63 345.562 396.473 346.098 397.93 347.17C399.387 348.242 400.292 349.708 400.643 351.567H395.342ZM409.735 363.628C407.675 363.628 405.983 363.142 404.659 362.17C403.336 361.182 402.624 359.775 402.524 357.949H407.775C407.825 358.569 408.01 359.021 408.328 359.306C408.646 359.591 409.056 359.733 409.559 359.733C410.011 359.733 410.38 359.624 410.665 359.407C410.966 359.172 411.117 358.854 411.117 358.452C411.117 357.933 410.874 357.531 410.388 357.246C409.902 356.961 409.115 356.643 408.026 356.291C406.871 355.906 405.932 355.537 405.212 355.185C404.509 354.817 403.889 354.289 403.353 353.603C402.834 352.899 402.574 351.986 402.574 350.864C402.574 349.725 402.859 348.753 403.428 347.949C403.998 347.128 404.785 346.509 405.79 346.09C406.795 345.671 407.934 345.462 409.207 345.462C411.268 345.462 412.909 345.947 414.132 346.919C415.371 347.874 416.033 349.222 416.117 350.964H410.765C410.748 350.428 410.581 350.026 410.263 349.758C409.961 349.49 409.567 349.356 409.082 349.356C408.713 349.356 408.412 349.465 408.177 349.683C407.943 349.901 407.825 350.211 407.825 350.613C407.825 350.948 407.951 351.241 408.202 351.492C408.47 351.726 408.797 351.936 409.182 352.12C409.567 352.288 410.137 352.505 410.891 352.773C412.013 353.159 412.934 353.544 413.655 353.929C414.392 354.298 415.02 354.825 415.539 355.512C416.075 356.182 416.343 357.036 416.343 358.075C416.343 359.13 416.075 360.077 415.539 360.914C415.02 361.752 414.258 362.413 413.253 362.899C412.264 363.385 411.092 363.628 409.735 363.628Z" fill="url(#paint3_linear_1190_2546)"/>
</g>
<path d="M214.551 78.6173C216.038 78.6173 217.338 78.9188 218.45 79.5218C219.576 80.1115 220.44 80.9423 221.043 82.0143C221.646 83.0864 221.948 84.3125 221.948 85.6928C221.948 87.0596 221.64 88.2791 221.023 89.3511C220.42 90.4231 219.556 91.2674 218.43 91.8838C217.318 92.4868 216.025 92.7883 214.551 92.7883H208.943V78.6173H214.551ZM214.249 89.3109C215.402 89.3109 216.306 88.996 216.963 88.3662C217.619 87.7363 217.948 86.8452 217.948 85.6928C217.948 84.5269 217.619 83.6291 216.963 82.9993C216.306 82.356 215.402 82.0344 214.249 82.0344H212.882V89.3109H214.249ZM227.663 81.7731V84.0847H232.186V87.0797H227.663V89.6325H232.789V92.7883H223.724V78.6173H232.789V81.7731H227.663ZM244.344 78.6173V81.753H238.676V84.2455H242.857V87.2405H238.676V92.7883H234.736V78.6173H244.344ZM249.943 78.6173V92.7883H246.003V78.6173H249.943ZM265.312 92.7883H261.373L256.126 84.8686V92.7883H252.187V78.6173H256.126L261.373 86.6375V78.6173H265.312V92.7883ZM271.496 78.6173V92.7883H267.557V78.6173H271.496ZM284.413 78.6173V81.753H280.635V92.7883H276.695V81.753H272.956V78.6173H284.413ZM289.811 78.6173V92.7883H285.871V78.6173H289.811ZM298.849 92.929C297.522 92.929 296.302 92.6208 295.19 92.0044C294.078 91.3746 293.193 90.5102 292.537 89.4114C291.894 88.2992 291.572 87.0462 291.572 85.6526C291.572 84.2589 291.894 83.0127 292.537 81.9138C293.193 80.8016 294.078 79.9372 295.19 79.3208C296.302 78.7044 297.522 78.3962 298.849 78.3962C300.189 78.3962 301.408 78.7044 302.507 79.3208C303.619 79.9372 304.497 80.8016 305.14 81.9138C305.783 83.0127 306.105 84.2589 306.105 85.6526C306.105 87.0462 305.783 88.2992 305.14 89.4114C304.497 90.5102 303.619 91.3746 302.507 92.0044C301.395 92.6208 300.175 92.929 298.849 92.929ZM298.849 89.2707C299.854 89.2707 300.644 88.9424 301.22 88.2858C301.81 87.6291 302.105 86.7514 302.105 85.6526C302.105 84.5269 301.81 83.6425 301.22 82.9993C300.644 82.3426 299.854 82.0143 298.849 82.0143C297.83 82.0143 297.033 82.3426 296.457 82.9993C295.88 83.6425 295.592 84.5269 295.592 85.6526C295.592 86.7648 295.88 87.6492 296.457 88.3059C297.033 88.9491 297.83 89.2707 298.849 89.2707ZM321.002 92.7883H317.062L311.816 84.8686V92.7883H307.876V78.6173H311.816L317.062 86.6375V78.6173H321.002V92.7883ZM333.887 92.929C332.561 92.929 331.341 92.6208 330.229 92.0044C329.117 91.3746 328.232 90.5102 327.576 89.4114C326.933 88.2992 326.611 87.0462 326.611 85.6526C326.611 84.2589 326.933 83.0127 327.576 81.9138C328.232 80.8016 329.117 79.9372 330.229 79.3208C331.341 78.7044 332.561 78.3962 333.887 78.3962C335.227 78.3962 336.447 78.7044 337.546 79.3208C338.658 79.9372 339.536 80.8016 340.179 81.9138C340.822 83.0127 341.144 84.2589 341.144 85.6526C341.144 87.0462 340.822 88.2992 340.179 89.4114C339.536 90.5102 338.658 91.3746 337.546 92.0044C336.434 92.6208 335.214 92.929 333.887 92.929ZM333.887 89.2707C334.892 89.2707 335.683 88.9424 336.259 88.2858C336.849 87.6291 337.144 86.7514 337.144 85.6526C337.144 84.5269 336.849 83.6425 336.259 82.9993C335.683 82.3426 334.892 82.0143 333.887 82.0143C332.869 82.0143 332.072 82.3426 331.495 82.9993C330.919 83.6425 330.631 84.5269 330.631 85.6526C330.631 86.7648 330.919 87.6492 331.495 88.3059C332.072 88.9491 332.869 89.2707 333.887 89.2707ZM352.523 78.6173V81.753H346.855V84.2455H351.036V87.2405H346.855V92.7883H342.915V78.6173L352.523 78.6173Z" fill="url(#paint4_linear_1190_2546)"/>
<path d="M227.455 137.29L218.557 122.013H212.661V137.29H207.783V99.9292H219.844C222.667 99.9292 225.043 100.412 226.973 101.376C228.938 102.341 230.403 103.646 231.368 105.289C232.333 106.933 232.815 108.809 232.815 110.918C232.815 113.49 232.065 115.76 230.564 117.725C229.099 119.69 226.883 120.995 223.917 121.638L233.298 137.29H227.455ZM212.661 118.1H219.844C222.488 118.1 224.471 117.457 225.793 116.171C227.116 114.848 227.777 113.097 227.777 110.918C227.777 108.702 227.116 106.987 225.793 105.772C224.507 104.557 222.524 103.949 219.844 103.949H212.661V118.1ZM245.272 103.896V116.385L258.887 116.385V120.405L245.272 120.405V133.27H260.495V137.29H240.394V99.8756L260.495 99.8756V103.896L245.272 103.896ZM289.96 128.981H273.665L270.663 137.29H265.518L279.025 100.144H284.653L298.108 137.29H292.962L289.96 128.981ZM288.566 125.015L281.813 106.147L275.059 125.015H288.566ZM315.626 99.9292C319.7 99.9292 323.22 100.697 326.186 102.234C329.187 103.735 331.475 105.897 333.047 108.72C334.655 111.543 335.459 114.866 335.459 118.69C335.459 122.514 334.655 125.837 333.047 128.66C331.475 131.447 329.187 133.591 326.186 135.092C323.22 136.557 319.7 137.29 315.626 137.29L303.995 137.29V99.9292H315.626ZM315.626 133.27C320.45 133.27 324.131 132.001 326.668 129.464C329.205 126.891 330.474 123.3 330.474 118.69C330.474 114.044 329.187 110.417 326.615 107.809C324.077 105.2 320.415 103.896 315.626 103.896H308.872V133.27H315.626ZM368.051 99.9292L355.883 123.192V137.29H351.005V123.192L338.784 99.9292L344.198 99.9292L353.417 118.851L362.637 99.9292H368.051Z" fill="url(#paint5_linear_1190_2546)"/>
<path d="M404.697 78.6173C406.184 78.6173 407.484 78.9188 408.596 79.5218C409.722 80.1115 410.586 80.9423 411.189 82.0143C411.792 83.0864 412.094 84.3125 412.094 85.6928C412.094 87.0596 411.786 88.2791 411.169 89.3511C410.566 90.4231 409.702 91.2674 408.576 91.8838C407.464 92.4868 406.171 92.7883 404.697 92.7883H399.089V78.6173H404.697ZM404.395 89.3109C405.548 89.3109 406.452 88.996 407.109 88.3662C407.765 87.7363 408.094 86.8452 408.094 85.6928C408.094 84.5269 407.765 83.6291 407.109 82.9993C406.452 82.356 405.548 82.0344 404.395 82.0344H403.028V89.3109H404.395ZM417.809 81.7731V84.0847H422.332V87.0797H417.809V89.6325H422.935V92.7883H413.87V78.6173H422.935V81.7731H417.809ZM434.49 78.6173V81.753H428.822V84.2455H433.003V87.2405H428.822V92.7883H424.882V78.6173H434.49ZM440.089 78.6173V92.7883H436.149V78.6173H440.089ZM455.458 92.7883H451.519L446.272 84.8686V92.7883H442.333V78.6173H446.272L451.519 86.6375V78.6173H455.458V92.7883ZM461.642 78.6173V92.7883H457.703V78.6173H461.642ZM474.559 78.6173V81.753H470.781V92.7883H466.841V81.753H463.102V78.6173H474.559ZM479.957 78.6173V92.7883H476.017V78.6173H479.957ZM488.995 92.929C487.668 92.929 486.448 92.6208 485.336 92.0044C484.224 91.3746 483.339 90.5102 482.683 89.4114C482.04 88.2992 481.718 87.0462 481.718 85.6526C481.718 84.2589 482.04 83.0127 482.683 81.9138C483.339 80.8016 484.224 79.9372 485.336 79.3208C486.448 78.7044 487.668 78.3962 488.995 78.3962C490.335 78.3962 491.554 78.7044 492.653 79.3208C493.765 79.9372 494.643 80.8016 495.286 81.9138C495.929 83.0127 496.251 84.2589 496.251 85.6526C496.251 87.0462 495.929 88.2992 495.286 89.4114C494.643 90.5102 493.765 91.3746 492.653 92.0044C491.541 92.6208 490.321 92.929 488.995 92.929ZM488.995 89.2707C490 89.2707 490.79 88.9424 491.366 88.2858C491.956 87.6291 492.251 86.7514 492.251 85.6526C492.251 84.5269 491.956 83.6425 491.366 82.9993C490.79 82.3426 490 82.0143 488.995 82.0143C487.976 82.0143 487.179 82.3426 486.603 82.9993C486.026 83.6425 485.738 84.5269 485.738 85.6526C485.738 86.7648 486.026 87.6492 486.603 88.3059C487.179 88.9491 487.976 89.2707 488.995 89.2707ZM511.148 92.7883H507.208L501.962 84.8686V92.7883H498.022V78.6173H501.962L507.208 86.6375V78.6173H511.148V92.7883ZM524.033 92.929C522.707 92.929 521.487 92.6208 520.375 92.0044C519.263 91.3746 518.378 90.5102 517.722 89.4114C517.079 88.2992 516.757 87.0462 516.757 85.6526C516.757 84.2589 517.079 83.0127 517.722 81.9138C518.378 80.8016 519.263 79.9372 520.375 79.3208C521.487 78.7044 522.707 78.3962 524.033 78.3962C525.373 78.3962 526.593 78.7044 527.692 79.3208C528.804 79.9372 529.682 80.8016 530.325 81.9138C530.968 83.0127 531.29 84.2589 531.29 85.6526C531.29 87.0462 530.968 88.2992 530.325 89.4114C529.682 90.5102 528.804 91.3746 527.692 92.0044C526.58 92.6208 525.36 92.929 524.033 92.929ZM524.033 89.2707C525.038 89.2707 525.829 88.9424 526.405 88.2858C526.995 87.6291 527.29 86.7514 527.29 85.6526C527.29 84.5269 526.995 83.6425 526.405 82.9993C525.829 82.3426 525.038 82.0143 524.033 82.0143C523.015 82.0143 522.218 82.3426 521.641 82.9993C521.065 83.6425 520.777 84.5269 520.777 85.6526C520.777 86.7648 521.065 87.6492 521.641 88.3059C522.218 88.9491 523.015 89.2707 524.033 89.2707ZM542.669 78.6173V81.753H537.001V84.2455H541.182V87.2405H537.001V92.7883H533.061V78.6173L542.669 78.6173Z" fill="url(#paint6_linear_1190_2546)"/>
<path d="M413.722 99.9292C417.796 99.9292 421.316 100.697 424.281 102.234C427.283 103.735 429.57 105.897 431.143 108.72C432.751 111.543 433.555 114.866 433.555 118.69C433.555 122.514 432.751 125.837 431.143 128.66C429.57 131.447 427.283 133.591 424.281 135.092C421.316 136.557 417.796 137.29 413.722 137.29H402.09V99.9292H413.722ZM413.722 133.27C418.546 133.27 422.227 132.001 424.764 129.464C427.301 126.891 428.57 123.3 428.57 118.69C428.57 114.044 427.283 110.417 424.71 107.809C422.173 105.2 418.51 103.896 413.722 103.896H406.968V133.27H413.722ZM456.927 137.665C453.461 137.665 450.298 136.861 447.439 135.253C444.58 133.609 442.311 131.34 440.632 128.445C438.988 125.515 438.166 122.228 438.166 118.583C438.166 114.938 438.988 111.668 440.632 108.774C442.311 105.843 444.58 103.574 447.439 101.966C450.298 100.322 453.461 99.5004 456.927 99.5004C460.429 99.5004 463.609 100.322 466.468 101.966C469.327 103.574 471.578 105.825 473.222 108.72C474.866 111.614 475.687 114.902 475.687 118.583C475.687 122.263 474.866 125.551 473.222 128.445C471.578 131.34 469.327 133.609 466.468 135.253C463.609 136.861 460.429 137.665 456.927 137.665ZM456.927 133.43C459.535 133.43 461.876 132.823 463.949 131.608C466.057 130.393 467.701 128.66 468.88 126.409C470.095 124.157 470.703 121.549 470.703 118.583C470.703 115.581 470.095 112.972 468.88 110.757C467.701 108.506 466.075 106.772 464.002 105.557C461.93 104.342 459.571 103.735 456.927 103.735C454.282 103.735 451.924 104.342 449.851 105.557C447.779 106.772 446.135 108.506 444.92 110.757C443.741 112.972 443.151 115.581 443.151 118.583C443.151 121.549 443.741 124.157 444.92 126.409C446.135 128.66 447.779 130.393 449.851 131.608C451.96 132.823 454.318 133.43 456.927 133.43ZM511.501 137.29H506.623L487.005 107.541V137.29H482.127V99.8756H487.005L506.623 129.571V99.8756H511.501V137.29ZM524.694 103.896V116.385L538.308 116.385V120.405L524.694 120.405V133.27H539.917V137.29H519.816V99.8756L539.917 99.8756V103.896L524.694 103.896Z" fill="url(#paint7_linear_1190_2546)"/>
<path d="M215.535 65.8485C213.545 65.8485 211.716 65.3862 210.048 64.4616C208.379 63.5168 207.053 62.2203 206.068 60.5721C205.103 58.9037 204.621 57.0243 204.621 54.9338C204.621 52.8433 205.103 50.9739 206.068 49.3257C207.053 47.6573 208.379 46.3608 210.048 45.4362C211.716 44.5116 213.545 44.0492 215.535 44.0492C217.545 44.0492 219.375 44.5116 221.023 45.4362C222.691 46.3608 224.008 47.6573 224.973 49.3257C225.937 50.9739 226.42 52.8433 226.42 54.9338C226.42 57.0243 225.937 58.9037 224.973 60.5721C224.008 62.2203 222.691 63.5168 221.023 64.4616C219.354 65.3862 217.525 65.8485 215.535 65.8485ZM215.535 60.361C217.043 60.361 218.229 59.8685 219.093 58.8836C219.978 57.8987 220.42 56.5821 220.42 54.9338C220.42 53.2453 219.978 51.9187 219.093 50.9538C218.229 49.9689 217.043 49.4764 215.535 49.4764C214.008 49.4764 212.812 49.9689 211.947 50.9538C211.083 51.9187 210.651 53.2453 210.651 54.9338C210.651 56.6022 211.083 57.9288 211.947 58.9137C212.812 59.8786 214.008 60.361 215.535 60.361ZM245.871 51.4664C245.871 52.7529 245.569 53.9288 244.966 54.9941C244.383 56.0393 243.489 56.8836 242.283 57.5268C241.097 58.1499 239.639 58.4615 237.911 58.4615H234.986V65.6375H229.076V44.3809H237.911C239.619 44.3809 241.067 44.6824 242.253 45.2854C243.459 45.8885 244.363 46.7226 244.966 47.788C245.569 48.8533 245.871 50.0795 245.871 51.4664ZM237.338 53.7579C239.006 53.7579 239.84 52.9941 239.84 51.4664C239.84 49.9187 239.006 49.1448 237.338 49.1448H234.986V53.7579H237.338ZM264.255 44.3809V49.0845H258.587V65.6375H252.677V49.0845H247.069V44.3809H264.255ZM272.351 44.3809V65.6375H266.441V44.3809H272.351ZM300.531 44.3809V65.6375H294.621V53.9087L290.611 65.6375H285.666L281.626 53.8182V65.6375H275.716V44.3809H282.862L288.199 58.1901L293.415 44.3809H300.531ZM309.804 44.3809V65.6375H303.895V44.3809H309.804ZM319.622 60.8434H328.456V65.6375H312.989V61.1449L321.733 49.1448H312.989V44.3809L328.456 44.3809V48.8734L319.622 60.8434ZM345.108 62.1701H337.571L336.425 65.6375L330.214 65.6375L337.963 44.3809H344.777L352.495 65.6375H346.254L345.108 62.1701ZM343.631 57.6474L341.339 50.7729L339.078 57.6474H343.631ZM370.432 44.3809V49.0845H364.763V65.6375H358.854V49.0845H353.246V44.3809L370.432 44.3809ZM378.528 44.3809V65.6375H372.618V44.3809H378.528ZM392.084 65.8485C390.094 65.8485 388.265 65.3862 386.597 64.4616C384.928 63.5168 383.602 62.2203 382.617 60.5721C381.652 58.9037 381.17 57.0243 381.17 54.9338C381.17 52.8433 381.652 50.9739 382.617 49.3257C383.602 47.6573 384.928 46.3608 386.597 45.4362C388.265 44.5116 390.094 44.0492 392.084 44.0492C394.094 44.0492 395.924 44.5116 397.572 45.4362C399.24 46.3608 400.557 47.6573 401.522 49.3257C402.486 50.9739 402.969 52.8433 402.969 54.9338C402.969 57.0243 402.486 58.9037 401.522 60.5721C400.557 62.2203 399.24 63.5168 397.572 64.4616C395.903 65.3862 394.074 65.8485 392.084 65.8485ZM392.084 60.361C393.592 60.361 394.778 59.8685 395.642 58.8836C396.527 57.8987 396.969 56.5821 396.969 54.9338C396.969 53.2453 396.527 51.9187 395.642 50.9538C394.778 49.9689 393.592 49.4764 392.084 49.4764C390.557 49.4764 389.361 49.9689 388.496 50.9538C387.632 51.9187 387.2 53.2453 387.2 54.9338C387.2 56.6022 387.632 57.9288 388.496 58.9137C389.361 59.8786 390.557 60.361 392.084 60.361ZM425.314 65.6375H419.405L411.535 53.7579V65.6375H405.625V44.3809H411.535L419.405 56.4112V44.3809H425.314V65.6375Z" fill="#D6D4F4"/>
<path d="M103.795 306.781C103.795 305.387 104.083 304.148 104.659 303.062C105.249 301.964 106.08 301.113 107.152 300.51C108.224 299.893 109.457 299.585 110.85 299.585C112.619 299.585 114.107 300.061 115.313 301.012C116.519 301.95 117.296 303.23 117.645 304.851H113.403C113.149 304.315 112.794 303.907 112.338 303.625C111.896 303.344 111.38 303.203 110.79 303.203C109.879 303.203 109.149 303.531 108.599 304.188C108.063 304.831 107.795 305.696 107.795 306.781C107.795 307.88 108.063 308.758 108.599 309.414C109.149 310.057 109.879 310.379 110.79 310.379C111.38 310.379 111.896 310.238 112.338 309.957C112.794 309.676 113.149 309.267 113.403 308.731H117.645C117.296 310.352 116.519 311.639 115.313 312.59C114.107 313.528 112.619 313.997 110.85 313.997C109.457 313.997 108.224 313.696 107.152 313.093C106.08 312.476 105.249 311.625 104.659 310.54C104.083 309.441 103.795 308.188 103.795 306.781ZM123.45 310.882H127.852V313.897H119.51V299.726H123.45V310.882ZM133.324 302.882V305.193H137.846V308.188H133.324V310.741H138.449V313.897H129.384V299.726H138.449V302.882H133.324ZM149.361 311.585H144.336L143.572 313.897H139.431L144.597 299.726H149.14L154.286 313.897H150.125L149.361 311.585ZM148.376 308.57L146.848 303.987L145.341 308.57H148.376ZM162.746 313.897L159.932 308.671H159.51V313.897H155.57V299.726H161.781C162.92 299.726 163.885 299.927 164.675 300.329C165.466 300.717 166.062 301.26 166.464 301.957C166.866 302.64 167.067 303.411 167.067 304.268C167.067 305.233 166.799 306.084 166.263 306.821C165.741 307.545 164.97 308.061 163.952 308.369L167.148 313.897H162.746ZM159.51 305.977H161.459C161.995 305.977 162.397 305.85 162.665 305.595C162.933 305.341 163.067 304.972 163.067 304.49C163.067 304.034 162.927 303.679 162.645 303.424C162.377 303.156 161.982 303.022 161.459 303.022H159.51V305.977ZM183.903 304.449C183.903 305.307 183.702 306.091 183.3 306.801C182.911 307.498 182.315 308.061 181.511 308.49C180.72 308.905 179.748 309.113 178.596 309.113H176.646V313.897H172.706V299.726H178.596C179.735 299.726 180.7 299.927 181.49 300.329C182.294 300.731 182.898 301.287 183.3 301.997C183.702 302.707 183.903 303.525 183.903 304.449ZM178.214 305.977C179.326 305.977 179.882 305.468 179.882 304.449C179.882 303.418 179.326 302.902 178.214 302.902H176.646V305.977H178.214ZM192.661 313.897L189.847 308.671H189.425V313.897H185.485V299.726H191.696C192.836 299.726 193.8 299.927 194.591 300.329C195.382 300.717 195.978 301.26 196.38 301.957C196.782 302.64 196.983 303.411 196.983 304.268C196.983 305.233 196.715 306.084 196.179 306.821C195.656 307.545 194.886 308.061 193.867 308.369L197.063 313.897H192.661ZM189.425 305.977H191.375C191.911 305.977 192.313 305.85 192.581 305.595C192.849 305.341 192.983 304.972 192.983 304.49C192.983 304.034 192.842 303.679 192.561 303.424C192.293 303.156 191.897 303.022 191.375 303.022H189.425V305.977ZM205.569 314.037C204.242 314.037 203.023 313.729 201.91 313.113C200.798 312.483 199.914 311.619 199.257 310.52C198.614 309.408 198.292 308.155 198.292 306.761C198.292 305.367 198.614 304.121 199.257 303.022C199.914 301.91 200.798 301.046 201.91 300.429C203.023 299.813 204.242 299.505 205.569 299.505C206.909 299.505 208.128 299.813 209.227 300.429C210.339 301.046 211.217 301.91 211.86 303.022C212.503 304.121 212.825 305.367 212.825 306.761C212.825 308.155 212.503 309.408 211.86 310.52C211.217 311.619 210.339 312.483 209.227 313.113C208.115 313.729 206.895 314.037 205.569 314.037ZM205.569 310.379C206.574 310.379 207.364 310.051 207.941 309.394C208.53 308.738 208.825 307.86 208.825 306.761C208.825 305.635 208.53 304.751 207.941 304.108C207.364 303.451 206.574 303.123 205.569 303.123C204.55 303.123 203.753 303.451 203.177 304.108C202.6 304.751 202.312 305.635 202.312 306.761C202.312 307.873 202.6 308.758 203.177 309.414C203.753 310.057 204.55 310.379 205.569 310.379ZM214.114 306.781C214.114 305.387 214.402 304.148 214.978 303.062C215.568 301.964 216.398 301.113 217.471 300.51C218.543 299.893 219.775 299.585 221.169 299.585C222.938 299.585 224.425 300.061 225.631 301.012C226.837 301.95 227.615 303.23 227.963 304.851H223.722C223.467 304.315 223.112 303.907 222.657 303.625C222.214 303.344 221.698 303.203 221.109 303.203C220.198 303.203 219.467 303.531 218.918 304.188C218.382 304.831 218.114 305.696 218.114 306.781C218.114 307.88 218.382 308.758 218.918 309.414C219.467 310.057 220.198 310.379 221.109 310.379C221.698 310.379 222.214 310.238 222.657 309.957C223.112 309.676 223.467 309.267 223.722 308.731H227.963C227.615 310.352 226.837 311.639 225.631 312.59C224.425 313.528 222.938 313.997 221.169 313.997C219.775 313.997 218.543 313.696 217.471 313.093C216.398 312.476 215.568 311.625 214.978 310.54C214.402 309.441 214.114 308.188 214.114 306.781ZM233.768 302.882V305.193H238.291V308.188H233.768V310.741H238.894V313.897H229.829V299.726H238.894V302.882H233.768ZM246.188 314.037C244.539 314.037 243.186 313.649 242.127 312.872C241.069 312.081 240.499 310.955 240.419 309.495H244.62C244.66 309.99 244.807 310.352 245.062 310.58C245.317 310.808 245.645 310.922 246.047 310.922C246.409 310.922 246.704 310.835 246.931 310.661C247.173 310.473 247.293 310.218 247.293 309.897C247.293 309.481 247.099 309.16 246.71 308.932C246.322 308.704 245.692 308.449 244.821 308.168C243.896 307.86 243.146 307.565 242.57 307.284C242.007 306.989 241.511 306.567 241.082 306.017C240.667 305.454 240.459 304.724 240.459 303.826C240.459 302.915 240.687 302.138 241.142 301.495C241.598 300.838 242.228 300.342 243.032 300.007C243.836 299.672 244.747 299.505 245.766 299.505C247.414 299.505 248.727 299.893 249.705 300.67C250.697 301.434 251.226 302.513 251.293 303.907H247.012C246.998 303.478 246.864 303.156 246.61 302.942C246.369 302.727 246.054 302.62 245.665 302.62C245.37 302.62 245.129 302.707 244.941 302.882C244.754 303.056 244.66 303.304 244.66 303.625C244.66 303.893 244.761 304.128 244.962 304.329C245.176 304.516 245.437 304.684 245.746 304.831C246.054 304.965 246.509 305.139 247.112 305.354C248.01 305.662 248.747 305.97 249.323 306.279C249.913 306.573 250.416 306.995 250.831 307.545C251.26 308.081 251.474 308.764 251.474 309.595C251.474 310.439 251.26 311.197 250.831 311.867C250.416 312.537 249.806 313.066 249.002 313.455C248.211 313.843 247.273 314.037 246.188 314.037ZM258.653 314.037C257.004 314.037 255.651 313.649 254.592 312.872C253.534 312.081 252.964 310.955 252.884 309.495H257.085C257.125 309.99 257.272 310.352 257.527 310.58C257.782 310.808 258.11 310.922 258.512 310.922C258.874 310.922 259.168 310.835 259.396 310.661C259.637 310.473 259.758 310.218 259.758 309.897C259.758 309.481 259.564 309.16 259.175 308.932C258.787 308.704 258.157 308.449 257.286 308.168C256.361 307.86 255.611 307.565 255.034 307.284C254.472 306.989 253.976 306.567 253.547 306.017C253.132 305.454 252.924 304.724 252.924 303.826C252.924 302.915 253.152 302.138 253.607 301.495C254.063 300.838 254.693 300.342 255.497 300.007C256.301 299.672 257.212 299.505 258.23 299.505C259.879 299.505 261.192 299.893 262.17 300.67C263.162 301.434 263.691 302.513 263.758 303.907H259.477C259.463 303.478 259.329 303.156 259.075 302.942C258.833 302.727 258.519 302.62 258.13 302.62C257.835 302.62 257.594 302.707 257.406 302.882C257.219 303.056 257.125 303.304 257.125 303.625C257.125 303.893 257.225 304.128 257.426 304.329C257.641 304.516 257.902 304.684 258.21 304.831C258.519 304.965 258.974 305.139 259.577 305.354C260.475 305.662 261.212 305.97 261.788 306.279C262.378 306.573 262.88 306.995 263.296 307.545C263.725 308.081 263.939 308.764 263.939 309.595C263.939 310.439 263.725 311.197 263.296 311.867C262.88 312.537 262.271 313.066 261.467 313.455C260.676 313.843 259.738 314.037 258.653 314.037Z" fill="#D6D4F4"/>
<circle cx="382.316" cy="114.246" r="5.44395" fill="#D6D4F4"/>
</g>
<defs>
<linearGradient id="paint0_linear_1190_2546" x1="205.764" y1="165.628" x2="540.954" y2="165.628" gradientUnits="userSpaceOnUse">
<stop stop-color="#705AD8"/>
<stop offset="1" stop-color="#3126CA"/>
</linearGradient>
<linearGradient id="paint1_linear_1190_2546" x1="294.946" y1="309.438" x2="417.295" y2="309.438" gradientUnits="userSpaceOnUse">
<stop stop-color="#4884F8"/>
<stop offset="1" stop-color="#705AD8"/>
</linearGradient>
<linearGradient id="paint2_linear_1190_2546" x1="215.38" y1="332.889" x2="417.34" y2="332.889" gradientUnits="userSpaceOnUse">
<stop stop-color="#4884F8"/>
<stop offset="1" stop-color="#705AD8"/>
</linearGradient>
<linearGradient id="paint3_linear_1190_2546" x1="342.685" y1="356.34" x2="417.268" y2="356.34" gradientUnits="userSpaceOnUse">
<stop stop-color="#4884F8"/>
<stop offset="1" stop-color="#705AD8"/>
</linearGradient>
<linearGradient id="paint4_linear_1190_2546" x1="207.817" y1="85.7883" x2="347.758" y2="122.799" gradientUnits="userSpaceOnUse">
<stop stop-color="#3291FD"/>
<stop offset="1" stop-color="#8666FD"/>
</linearGradient>
<linearGradient id="paint5_linear_1190_2546" x1="203.656" y1="119.29" x2="353.73" y2="162.346" gradientUnits="userSpaceOnUse">
<stop stop-color="#6469FE"/>
<stop offset="1" stop-color="#FF97AD"/>
</linearGradient>
<linearGradient id="paint6_linear_1190_2546" x1="397.963" y1="85.7883" x2="537.904" y2="122.799" gradientUnits="userSpaceOnUse">
<stop stop-color="#3291FD"/>
<stop offset="1" stop-color="#8666FD"/>
</linearGradient>
<linearGradient id="paint7_linear_1190_2546" x1="397.963" y1="125.553" x2="536.552" y2="149.11" gradientUnits="userSpaceOnUse">
<stop stop-color="#6469FE"/>
<stop offset="1" stop-color="#FF97AD"/>
</linearGradient>
<clipPath id="clip0_1190_2546">
<rect width="550.986" height="380.239" fill="white" transform="translate(0 0.760742)"/>
</clipPath>
<clipPath id="clip1_1190_2546">
<rect x="289.92" y="298.55" width="132.33" height="21.7758" rx="3.35013" fill="white"/>
</clipPath>
<clipPath id="clip2_1190_2546">
<rect x="210.355" y="322.001" width="211.895" height="21.7758" rx="3.35013" fill="white"/>
</clipPath>
<clipPath id="clip3_1190_2546">
<rect x="337.66" y="345.452" width="84.5907" height="21.7758" rx="3.35013" fill="white"/>
</clipPath>
</defs>
</svg>
