<svg width="40" height="40" viewBox="0 0 40 40" fill="none" xmlns="http://www.w3.org/2000/svg">
<path fill-rule="evenodd" clip-rule="evenodd" d="M2 20C2 29.9411 10.0589 38 20 38C29.9411 38 38 29.9411 38 20C38 10.0589 29.9411 2 20 2C10.0589 2 2 10.0589 2 20ZM20 0C8.95431 0 0 8.95431 0 20C0 31.0457 8.95431 40 20 40C31.0457 40 40 31.0457 40 20C40 8.95431 31.0457 0 20 0Z" fill="#0E2333"/>
<path d="M15.1372 9.94997C15.1372 11.2319 14.3215 12.2808 12.8064 12.2808C11.4079 12.2808 10.4756 11.2319 10.4756 10.0665C10.4756 8.78456 11.4079 7.61914 12.8064 7.61914C14.2049 7.61914 15.1372 8.66801 15.1372 9.94997Z" fill="#0E2333"/>
<path d="M15.1379 13.4404L10.4824 13.4404L10.4824 28.5724L15.1379 28.5724L15.1379 13.4404Z" fill="#0E2333"/>
<path d="M26.3071 13.6729C23.8598 13.6729 22.4674 15.0713 21.8847 16.0037H21.7681L21.5351 14.0225L17.3457 14.0225C17.3457 15.3044 17.4622 16.8133 17.4622 18.5615L17.4622 28.5718L22.1178 28.5718L22.1178 20.3096C22.1178 19.8434 22.1178 19.4938 22.2343 19.1442C22.5839 18.3284 23.1666 17.2795 24.4486 17.2795C26.0802 17.2795 26.7794 18.678 26.7794 20.5365L26.7794 28.5718L31.435 28.5718L31.435 19.96C31.4288 15.6541 29.2207 13.6729 26.3071 13.6729Z" fill="#0E2333"/>
</svg>
