<svg width="24" height="24" viewBox="0 0 24 24" fill="none" xmlns="http://www.w3.org/2000/svg">
<path fill-rule="evenodd" clip-rule="evenodd" d="M1.2 12C1.2 17.9647 6.03533 22.8 12 22.8C17.9647 22.8 22.8 17.9647 22.8 12C22.8 6.03533 17.9647 1.2 12 1.2C6.03533 1.2 1.2 6.03533 1.2 12ZM12 0C5.37258 0 0 5.37258 0 12C0 18.6274 5.37258 24 12 24C18.6274 24 24 18.6274 24 12C24 5.37258 18.6274 0 12 0Z" fill="#0E2333"/>
<path d="M9.08215 5.96979C9.08215 6.73896 8.59268 7.36829 7.68365 7.36829C6.84456 7.36829 6.28516 6.73896 6.28516 6.03971C6.28516 5.27054 6.84456 4.57129 7.68365 4.57129C8.52275 4.57129 9.08215 5.20061 9.08215 5.96979Z" fill="#0E2333"/>
<path d="M9.08238 8.06396L6.28906 8.06396L6.28906 17.1432L9.08238 17.1432L9.08238 8.06396Z" fill="#0E2333"/>
<path d="M15.7841 8.20361C14.3157 8.20361 13.4802 9.04271 13.1306 9.60211L13.0607 9.60211L12.9208 8.41339L10.4072 8.41339C10.4072 9.18256 10.4772 10.0879 10.4772 11.1368L10.4772 17.143L13.2705 17.143L13.2705 12.1857C13.2705 11.906 13.2705 11.6962 13.3404 11.4864C13.5502 10.9969 13.8998 10.3676 14.669 10.3676C15.6479 10.3676 16.0675 11.2067 16.0675 12.3218L16.0675 17.143L18.8608 17.143L18.8608 11.9759C18.8571 9.39234 17.5322 8.20361 15.7841 8.20361Z" fill="#0E2333"/>
</svg>
