<svg width="24" height="24" viewBox="0 0 24 24" fill="none" xmlns="http://www.w3.org/2000/svg">
<path fill-rule="evenodd" clip-rule="evenodd" d="M1.2 12C1.2 17.9647 6.03533 22.8 12 22.8C17.9647 22.8 22.8 17.9647 22.8 12C22.8 6.03533 17.9647 1.2 12 1.2C6.03533 1.2 1.2 6.03533 1.2 12ZM12 0C5.37258 0 0 5.37258 0 12C0 18.6274 5.37258 24 12 24C18.6274 24 24 18.6274 24 12C24 5.37258 18.6274 0 12 0Z" fill="#0E2333"/>
<path d="M13.8617 7.97578L14.857 7.97578L14.857 5.71711L13.3602 5.71436C11.2376 5.71436 10.2318 7.03099 10.2318 8.90679L10.2318 10.6834L8.57129 10.6834L8.57129 12.8292L10.2318 12.8292L10.2318 18.2858L12.7239 18.2858L12.7239 12.8292L14.3845 12.8292L14.857 10.6834L12.7239 10.6834L12.7239 9.21805C12.7213 8.62308 13.0354 7.97578 13.8617 7.97578Z" fill="#0E2333"/>
</svg>
