<svg width="40" height="40" viewBox="0 0 40 40" fill="none" xmlns="http://www.w3.org/2000/svg">
<path fill-rule="evenodd" clip-rule="evenodd" d="M2 20C2 29.9411 10.0589 38 20 38C29.9411 38 38 29.9411 38 20C38 10.0589 29.9411 2 20 2C10.0589 2 2 10.0589 2 20ZM20 0C8.95431 0 0 8.95431 0 20C0 31.0457 8.95431 40 20 40C31.0457 40 40 31.0457 40 20C40 8.95431 31.0457 0 20 0Z" fill="#0E2333"/>
<path d="M23.1026 13.2925L24.7613 13.2925L24.7613 9.52803L22.2666 9.52344C18.7291 9.52344 17.0527 11.7178 17.0527 14.8442L17.0527 17.8052L14.2852 17.8052L14.2852 21.3815L17.0527 21.3815L17.0527 30.4758L21.2062 30.4758L21.2062 21.3815H23.9738L24.7613 17.8052L21.2062 17.8052L21.2062 15.3629C21.2018 14.3713 21.7254 13.2925 23.1026 13.2925Z" fill="#0E2333"/>
</svg>
