<svg width="160" height="55" viewBox="0 0 160 55" fill="none" xmlns="http://www.w3.org/2000/svg">
<path fill-rule="evenodd" clip-rule="evenodd" d="M88.2477 21.6703C88.9984 22.0766 89.833 22.2797 90.7515 22.2797C91.67 22.2797 92.4957 22.0766 93.2287 21.6703C93.9706 21.2641 94.5534 20.7033 94.9773 19.9879C95.4013 19.2637 95.6132 18.4556 95.6132 17.5637C95.6132 16.6717 95.4013 15.868 94.9773 15.1527C94.5534 14.4285 93.9706 13.8633 93.2287 13.457C92.4957 13.0508 91.67 12.8477 90.7515 12.8477C89.833 12.8477 88.9984 13.0552 88.2477 13.4703C87.5059 13.8765 86.923 14.4373 86.4991 15.1527C86.084 15.868 85.8765 16.6717 85.8765 17.5637C85.8765 18.4556 86.084 19.2593 86.4991 19.9747C86.923 20.69 87.5059 21.2552 88.2477 21.6703ZM92.7386 20.9152C92.1469 21.242 91.4845 21.4054 90.7515 21.4054C90.0185 21.4054 89.3517 21.242 88.7511 20.9152C88.1594 20.5796 87.6914 20.1204 87.3469 19.5375C87.0113 18.9458 86.8435 18.2879 86.8435 17.5637C86.8435 16.8395 87.0113 16.186 87.3469 15.6031C87.6914 15.0114 88.1594 14.5521 88.7511 14.2254C89.3517 13.8898 90.0185 13.722 90.7515 13.722C91.4845 13.722 92.1469 13.8898 92.7386 14.2254C93.3303 14.5521 93.7939 15.0114 94.1295 15.6031C94.4651 16.186 94.6329 16.8395 94.6329 17.5637C94.6329 18.2879 94.4651 18.9458 94.1295 19.5375C93.7939 20.1204 93.3303 20.5796 92.7386 20.9152ZM71.2163 12.9271C72.3997 12.9271 73.327 13.2097 73.9982 13.775C74.6694 14.3402 75.005 15.1173 75.005 16.1065C75.005 17.0956 74.6694 17.8728 73.9982 18.438C73.327 18.9944 72.3997 19.2726 71.2163 19.2726H68.7258V22.2002H67.7455V12.9271H71.2163ZM71.1898 18.4115C72.1082 18.4115 72.8104 18.2128 73.2961 17.8154C73.7818 17.4091 74.0247 16.8395 74.0247 16.1065C74.0247 15.3558 73.7818 14.7818 73.2961 14.3843C72.8104 13.9781 72.1082 13.775 71.1898 13.775H68.7258V18.4115H71.1898ZM83.4568 22.2002L81.3373 19.2196C81.0988 19.2461 80.8515 19.2593 80.5954 19.2593L78.1049 19.2593V22.2002H77.1246V12.9271H80.5954C81.7788 12.9271 82.7061 13.2097 83.3773 13.775C84.0485 14.3402 84.3841 15.1173 84.3841 16.1065C84.3841 16.8307 84.1987 17.4444 83.8277 17.9478C83.4656 18.4424 82.9446 18.8001 82.2646 19.0209L84.5298 22.2002H83.4568ZM80.5689 18.4247C81.4874 18.4247 82.1895 18.2216 82.6752 17.8154C83.161 17.4091 83.4038 16.8395 83.4038 16.1065C83.4038 15.3558 83.161 14.7818 82.6752 14.3843C82.1895 13.9781 81.4874 13.775 80.5689 13.775H78.1049V18.4247L80.5689 18.4247ZM98.61 22.2797C98.0801 22.2797 97.5899 22.1649 97.1395 21.9353C96.6891 21.7056 96.3226 21.3789 96.04 20.955L96.6229 20.2926C97.1351 21.0521 97.8019 21.4319 98.6232 21.4319C99.7713 21.4319 100.345 20.7518 100.345 19.3918V13.775H96.9541V12.9271H101.312V19.352C101.312 20.3235 101.083 21.0565 100.624 21.5511C100.173 22.0368 99.502 22.2797 98.61 22.2797ZM110.81 22.2002V21.3524H105.233V17.9081H110.029V17.0735H105.233V13.775H110.612V12.9271L104.253 12.9271V22.2002H110.81ZM117.09 22.2797C116.172 22.2797 115.341 22.0766 114.6 21.6703C113.867 21.2641 113.288 20.7033 112.864 19.9879C112.449 19.2637 112.242 18.4556 112.242 17.5637C112.242 16.6717 112.449 15.868 112.864 15.1527C113.288 14.4285 113.871 13.8633 114.613 13.457C115.355 13.0508 116.185 12.8477 117.103 12.8477C117.792 12.8477 118.428 12.9625 119.011 13.1921C119.594 13.4217 120.088 13.7573 120.495 14.1989L119.872 14.8215C119.148 14.0885 118.234 13.722 117.13 13.722C116.397 13.722 115.73 13.8898 115.129 14.2254C114.529 14.561 114.056 15.0202 113.712 15.6031C113.376 16.186 113.209 16.8395 113.209 17.5637C113.209 18.2879 113.376 18.9414 113.712 19.5243C114.056 20.1071 114.529 20.5664 115.129 20.902C115.73 21.2376 116.397 21.4054 117.13 21.4054C118.243 21.4054 119.157 21.0344 119.872 20.2926L120.495 20.9152C120.088 21.3568 119.589 21.6968 118.998 21.9353C118.415 22.1649 117.779 22.2797 117.09 22.2797ZM121.011 13.775H124.27V22.2002H125.25V13.775L128.509 13.775V12.9271L121.011 12.9271V13.775ZM69.8323 41.9043C71.104 42.2381 72.4155 42.4051 73.7667 42.4051C75.3564 42.4051 76.7076 42.1666 77.8203 41.6897C78.9331 41.1969 79.7677 40.5451 80.3241 39.7344C80.8805 38.9237 81.1587 38.0176 81.1587 37.0161C81.1587 35.8556 80.8487 34.9416 80.2287 34.2739C79.6246 33.5904 78.9013 33.0976 78.0588 32.7955C77.2322 32.4776 76.183 32.1835 74.9113 31.9133C73.7826 31.6748 72.9639 31.4443 72.4552 31.2218C71.9465 30.9992 71.6922 30.6654 71.6922 30.2203C71.6922 29.7752 71.9068 29.4175 72.336 29.1472C72.7652 28.8611 73.4488 28.718 74.3867 28.718C75.881 28.718 77.4229 29.1472 79.0126 30.0057L80.4671 26.5004C79.6564 26.0235 78.7185 25.6659 77.6534 25.4274C76.5884 25.1731 75.5074 25.0459 74.4105 25.0459C72.805 25.0459 71.4458 25.2843 70.333 25.7612C69.2361 26.2381 68.4095 26.8899 67.8531 27.7165C67.2968 28.5273 67.0186 29.4413 67.0186 30.4587C67.0186 31.6192 67.3206 32.5412 67.9247 33.2247C68.5287 33.9083 69.252 34.409 70.0946 34.727C70.9371 35.029 71.9863 35.3151 73.2421 35.5854C74.3867 35.8397 75.2133 36.0861 75.722 36.3246C76.2466 36.5471 76.5089 36.8969 76.5089 37.3738C76.5089 38.2799 75.6028 38.7329 73.7905 38.7329C72.8367 38.7329 71.867 38.5819 70.8815 38.2799C69.8959 37.9778 69.0295 37.5804 68.2823 37.0876L66.7324 40.569C67.5273 41.1254 68.5605 41.5705 69.8323 41.9043ZM88.0608 25.3797H83.3395V42.0712H88.0608V25.3797ZM106.49 42.0712L106.442 33.2247L102.15 40.4259H100.052L95.7835 33.4632V42.0712H91.4198V25.3797L95.3066 25.3797L101.172 35.0131L106.895 25.3797H110.782L110.83 42.0712H106.49ZM125.735 26.1428C124.622 25.6341 123.311 25.3797 121.801 25.3797H114.17V42.0712H118.892V37.7076H121.801C123.311 37.7076 124.622 37.4612 125.735 36.9684C126.848 36.4597 127.706 35.7444 128.31 34.8223C128.915 33.9003 129.217 32.8114 129.217 31.5556C129.217 30.2997 128.915 29.2108 128.31 28.2888C127.706 27.3509 126.848 26.6356 125.735 26.1428ZM123.708 33.3678C123.216 33.7811 122.484 33.9878 121.515 33.9878H118.892V29.0995H121.515C122.484 29.0995 123.216 29.3141 123.708 29.7434C124.201 30.1726 124.448 30.7766 124.448 31.5556C124.448 32.3345 124.201 32.9386 123.708 33.3678ZM131.519 25.3797H136.24V38.3276H144.204V42.0712H131.519V25.3797ZM159.473 42.0712V38.4229H150.746V35.3708H158.162V31.8417H150.746V29.028H159.163V25.3797H146.072V42.0712H159.473Z" fill="#333333"/>
<path d="M0 11.6027C0 5.74967 4.74479 1.00488 10.5978 1.00488L42.3911 1.00488C48.2441 1.00488 52.9889 5.74967 52.9889 11.6027L52.9889 43.396C52.9889 49.249 48.2441 53.9938 42.3911 53.9938L10.5978 53.9938C4.74479 53.9938 0 49.249 0 43.396L0 11.6027Z" fill="url(#paint0_linear_1424_2240)"/>
<g filter="url(#filter0_d_1424_2240)">
<path d="M17.2227 20.876C17.2227 19.4128 18.4089 18.2266 19.8721 18.2266L38.4182 18.2266C39.8815 18.2266 41.0677 19.4128 41.0677 20.876V39.4221C41.0677 40.8854 39.8815 42.0716 38.4182 42.0716H19.8721C18.4089 42.0716 17.2227 40.8854 17.2227 39.4221L17.2227 20.876Z" fill="#B5E6FF"/>
</g>
<path d="M14.5742 18.2266C14.5742 16.7633 15.7604 15.5771 17.2237 15.5771L35.7698 15.5771C37.233 15.5771 38.4192 16.7633 38.4192 18.2266V36.7727C38.4192 38.236 37.233 39.4222 35.7698 39.4222H17.2237C15.7604 39.4222 14.5742 38.236 14.5742 36.7727L14.5742 18.2266Z" fill="#E1F2FF"/>
<path d="M11.9277 15.5772C11.9277 14.1139 13.1139 12.9277 14.5772 12.9277L33.1233 12.9277C34.5865 12.9277 35.7727 14.1139 35.7727 15.5772V34.1233C35.7727 35.5865 34.5865 36.7727 33.1233 36.7727H14.5772C13.1139 36.7727 11.9277 35.5865 11.9277 34.1233L11.9277 15.5772Z" fill="white"/>
<defs>
<filter id="filter0_d_1424_2240" x="12.1556" y="13.1595" width="33.9798" height="33.9789" filterUnits="userSpaceOnUse" color-interpolation-filters="sRGB">
<feFlood flood-opacity="0" result="BackgroundImageFix"/>
<feColorMatrix in="SourceAlpha" type="matrix" values="0 0 0 0 0 0 0 0 0 0 0 0 0 0 0 0 0 0 127 0" result="hardAlpha"/>
<feOffset/>
<feGaussianBlur stdDeviation="2.53353"/>
<feColorMatrix type="matrix" values="0 0 0 0 0.28875 0 0 0 0 0.809965 0 0 0 0 0.825 0 0 0 0.34 0"/>
<feBlend mode="normal" in2="BackgroundImageFix" result="effect1_dropShadow_1424_2240"/>
<feBlend mode="normal" in="SourceGraphic" in2="effect1_dropShadow_1424_2240" result="shape"/>
</filter>
<linearGradient id="paint0_linear_1424_2240" x1="3.31181" y1="1.00488" x2="52.9889" y2="53.9938" gradientUnits="userSpaceOnUse">
<stop stop-color="#D885FF"/>
<stop offset="1" stop-color="#86FEF7"/>
</linearGradient>
</defs>
</svg>
