<svg width="40" height="41" viewBox="0 0 40 41" fill="none" xmlns="http://www.w3.org/2000/svg">
<path fill-rule="evenodd" clip-rule="evenodd" d="M2 20.7607C2 30.7019 10.0589 38.7607 20 38.7607C29.9411 38.7607 38 30.7019 38 20.7607C38 10.8196 29.9411 2.76074 20 2.76074C10.0589 2.76074 2 10.8196 2 20.7607ZM20 0.760742C8.95431 0.760742 0 9.71505 0 20.7607C0 31.8064 8.95431 40.7607 20 40.7607C31.0457 40.7607 40 31.8064 40 20.7607C40 9.71505 31.0457 0.760742 20 0.760742Z" fill="#071825"/>
<path d="M15.1382 10.7107C15.1382 11.9927 14.3224 13.0415 12.8074 13.0415C11.4089 13.0415 10.4766 11.9927 10.4766 10.8273C10.4766 9.5453 11.4089 8.37988 12.8074 8.37988C14.2059 8.37988 15.1382 9.42876 15.1382 10.7107Z" fill="#071825"/>
<path d="M15.1399 14.2012L10.4844 14.2012L10.4844 29.3332L15.1399 29.3332L15.1399 14.2012Z" fill="#071825"/>
<path d="M26.3091 14.4339C23.8617 14.4339 22.4693 15.8324 21.8866 16.7647H21.7701L21.537 14.7835L17.3477 14.7835C17.3477 16.0654 17.4642 17.5744 17.4642 19.3225L17.4642 29.3328L22.1197 29.3328L22.1197 21.0706C22.1197 20.6044 22.1197 20.2548 22.2363 19.9052C22.5859 19.0894 23.1686 18.0405 24.4506 18.0405C26.0821 18.0405 26.7814 19.439 26.7814 21.2975L26.7814 29.3328L31.4369 29.3328L31.4369 20.721C31.4308 16.4151 29.2226 14.4339 26.3091 14.4339Z" fill="#071825"/>
</svg>
